<svg id="svg" version="1.1" xmlns="http://www.w3.org/2000/svg" xmlns:xlink="http://www.w3.org/1999/xlink" width="400" height="400" viewBox="0, 0, 400,400"><g id="svgg"><path id="path0" d="M191.562 59.500 C 189.394 62.200,190.107 63.574,193.686 63.591 C 196.473 63.604,197.072 61.546,194.933 59.300 C 194.238 58.569,192.213 58.689,191.562 59.500 M198.480 59.280 C 198.216 59.544,198.000 59.935,198.000 60.149 C 198.000 60.362,197.692 60.877,197.316 61.293 C 196.467 62.231,197.112 62.784,199.067 62.794 C 199.763 62.797,200.415 63.025,200.514 63.300 C 200.659 63.700,200.865 63.700,201.542 63.300 C 202.008 63.025,203.022 62.800,203.795 62.800 C 205.593 62.800,205.815 61.079,204.197 59.672 C 203.061 58.684,199.332 58.428,198.480 59.280 M182.875 60.635 C 182.219 61.335,181.987 61.996,182.075 62.911 L 182.200 64.200 184.771 64.200 C 187.276 64.200,187.351 64.170,187.656 63.029 C 188.335 60.488,184.714 58.674,182.875 60.635 M207.472 60.177 C 206.964 60.562,206.783 61.133,206.872 62.065 C 207.034 63.756,210.756 64.377,211.574 62.849 C 212.761 60.631,209.594 58.568,207.472 60.177 M215.527 60.500 C 215.430 61.174,215.165 61.375,214.470 61.300 C 213.361 61.180,212.232 62.185,212.549 63.010 C 212.849 63.792,214.268 63.765,214.714 62.969 C 215.016 62.428,215.159 62.478,215.709 63.318 C 216.277 64.184,216.623 64.293,218.676 64.249 C 221.703 64.185,222.030 63.182,219.724 61.038 C 217.855 59.301,215.737 59.030,215.527 60.500 M201.600 60.800 C 201.600 61.240,201.420 61.600,201.200 61.600 C 200.980 61.600,200.800 61.240,200.800 60.800 C 200.800 60.360,200.980 60.000,201.200 60.000 C 201.420 60.000,201.600 60.360,201.600 60.800 M193.528 61.504 C 193.625 62.185,193.457 62.400,192.828 62.400 C 192.205 62.400,192.000 62.145,192.000 61.371 C 192.000 60.058,193.338 60.175,193.528 61.504 M210.400 61.157 C 210.400 61.607,209.360 62.026,209.039 61.706 C 208.558 61.224,208.820 60.800,209.600 60.800 C 210.040 60.800,210.400 60.961,210.400 61.157 M185.600 62.400 C 185.600 62.933,185.333 63.200,184.800 63.200 C 184.267 63.200,184.000 62.933,184.000 62.400 C 184.000 61.867,184.267 61.600,184.800 61.600 C 185.333 61.600,185.600 61.867,185.600 62.400 M218.266 62.227 C 218.599 63.096,217.753 63.913,217.147 63.307 C 216.635 62.795,216.952 61.600,217.600 61.600 C 217.834 61.600,218.133 61.882,218.266 62.227 M174.496 62.795 C 173.714 64.047,173.871 65.641,174.800 65.884 C 175.240 65.999,175.600 66.252,175.600 66.447 C 175.600 67.298,177.744 66.731,178.800 65.600 C 179.417 64.940,180.112 64.400,180.346 64.400 C 180.912 64.400,181.702 62.888,181.395 62.392 C 180.893 61.579,175.042 61.921,174.496 62.795 M224.080 62.480 C 222.748 63.812,223.862 65.852,226.037 66.066 C 227.352 66.195,227.404 66.147,227.524 64.696 C 227.712 62.425,225.536 61.024,224.080 62.480 M177.649 63.921 C 177.929 64.677,177.836 64.800,176.987 64.800 C 176.297 64.800,176.000 64.580,176.000 64.067 C 176.000 62.547,177.105 62.449,177.649 63.921 M166.500 65.483 C 165.388 67.877,166.267 69.166,169.026 69.187 C 171.024 69.203,172.831 66.679,171.894 65.180 C 171.062 63.846,167.158 64.066,166.500 65.483 M170.223 66.437 C 170.636 67.105,169.778 67.710,168.840 67.413 C 168.046 67.161,167.702 66.031,168.253 65.481 C 168.548 65.185,169.835 65.810,170.223 66.437 M159.900 67.747 C 157.902 69.465,158.641 72.401,161.071 72.400 C 164.039 72.398,165.596 68.655,163.139 67.429 C 161.479 66.602,161.200 66.629,159.900 67.747 M161.767 68.643 C 162.674 68.991,162.642 71.600,161.731 71.600 C 161.364 71.600,160.734 71.302,160.331 70.938 C 158.818 69.568,159.855 67.909,161.767 68.643 M152.100 71.398 C 151.825 71.711,151.600 72.161,151.600 72.400 C 151.600 72.638,151.240 73.220,150.800 73.692 C 150.360 74.164,150.000 74.823,150.000 75.155 C 150.000 75.626,149.893 75.653,149.520 75.280 C 148.614 74.374,146.490 74.831,144.915 76.271 C 144.225 76.903,144.260 79.117,144.971 79.829 C 146.137 80.994,150.000 80.288,150.000 78.908 C 150.000 77.186,151.027 76.406,153.300 76.403 C 154.565 76.401,155.600 76.241,155.600 76.047 C 155.600 75.852,155.960 75.599,156.400 75.484 C 157.331 75.241,157.568 72.128,156.720 71.280 C 156.053 70.613,152.716 70.698,152.100 71.398 M154.702 72.100 C 156.140 73.897,155.137 76.527,153.628 74.917 C 152.668 73.893,152.615 73.486,153.296 72.395 C 153.874 71.470,154.152 71.412,154.702 72.100 M148.902 77.361 C 149.584 78.351,149.020 79.398,147.738 79.522 C 146.386 79.654,145.200 78.525,145.200 77.106 C 145.200 76.294,148.315 76.508,148.902 77.361 M138.678 80.973 C 138.107 81.406,137.981 81.971,138.078 83.660 L 138.200 85.800 139.895 85.923 C 142.762 86.130,144.865 82.808,143.029 80.971 C 142.307 80.250,139.630 80.251,138.678 80.973 M141.995 81.889 C 143.145 82.873,142.990 83.753,141.575 84.287 C 139.628 85.022,137.901 83.059,139.280 81.680 C 139.959 81.001,141.056 81.085,141.995 81.889 M134.000 85.600 C 134.000 85.820,133.640 86.000,133.200 86.000 C 132.667 86.000,132.400 86.267,132.400 86.800 C 132.400 87.240,132.220 87.600,132.000 87.600 C 131.780 87.600,131.601 88.275,131.603 89.100 C 131.608 91.607,134.288 92.391,136.662 90.580 C 138.306 89.326,138.648 86.494,137.200 86.116 C 136.760 86.001,136.400 85.748,136.400 85.553 C 136.400 85.359,135.860 85.200,135.200 85.200 C 134.540 85.200,134.000 85.380,134.000 85.600 M136.322 87.595 C 137.321 88.428,137.352 89.514,136.400 90.287 C 135.690 90.864,134.000 90.962,134.000 90.427 C 134.000 90.222,133.640 89.940,133.200 89.800 C 132.302 89.515,132.115 88.045,132.880 87.280 C 133.592 86.568,135.274 86.722,136.322 87.595 M127.600 92.000 C 127.600 92.220,128.135 92.400,128.790 92.400 C 129.693 92.400,130.121 92.674,130.568 93.539 C 131.455 95.253,130.993 96.400,129.415 96.400 C 127.853 96.400,126.604 95.194,126.918 93.990 C 127.098 93.303,127.036 93.238,126.569 93.626 C 125.263 94.710,126.957 98.000,128.821 98.000 C 129.679 98.000,132.400 95.632,132.400 94.886 C 132.400 94.246,131.296 92.307,130.726 91.946 C 129.986 91.476,127.600 91.518,127.600 92.000 M200.941 97.696 C 200.837 97.863,202.293 98.000,204.176 98.000 C 206.059 98.000,207.600 97.838,207.600 97.640 C 207.600 97.208,201.209 97.262,200.941 97.696 M121.829 99.261 C 121.045 100.834,121.016 103.074,121.771 103.829 C 123.384 105.441,127.799 103.279,127.497 101.026 C 127.076 97.881,123.131 96.653,121.829 99.261 M198.800 98.400 C 198.800 98.620,199.070 98.800,199.400 98.800 C 199.730 98.800,200.000 98.620,200.000 98.400 C 200.000 98.180,199.730 98.000,199.400 98.000 C 199.070 98.000,198.800 98.180,198.800 98.400 M208.794 98.782 C 209.341 99.202,209.868 99.466,209.965 99.369 C 210.191 99.142,208.729 98.027,208.200 98.022 C 207.980 98.020,208.247 98.361,208.794 98.782 M125.243 99.700 C 126.827 101.028,126.922 101.514,125.816 102.620 C 124.489 103.948,122.000 103.159,122.000 101.410 C 122.000 99.603,123.921 98.591,125.243 99.700 M195.012 103.317 C 194.841 103.712,194.813 104.147,194.951 104.284 C 195.357 104.690,195.684 104.120,195.497 103.331 C 195.332 102.633,195.310 102.632,195.012 103.317 M117.781 105.846 C 116.292 107.335,116.125 108.058,116.895 109.689 C 117.367 110.690,119.633 111.530,119.914 110.809 C 119.977 110.648,120.472 110.601,121.014 110.705 C 121.586 110.814,122.000 110.706,122.000 110.447 C 122.000 110.186,121.271 110.000,120.246 110.000 C 118.529 110.000,117.257 109.011,117.417 107.800 C 117.792 104.943,122.000 105.504,122.000 108.411 C 122.000 110.161,122.520 109.593,122.674 107.675 C 122.781 106.345,122.643 106.079,121.497 105.398 C 119.618 104.280,119.310 104.317,117.781 105.846 M212.400 105.400 C 212.400 105.996,212.572 106.341,212.800 106.200 C 213.020 106.064,213.200 105.704,213.200 105.400 C 213.200 105.096,213.020 104.736,212.800 104.600 C 212.572 104.459,212.400 104.804,212.400 105.400 M194.813 107.900 C 194.826 109.460,195.767 111.183,196.296 110.616 C 196.463 110.437,196.375 110.210,196.100 110.112 C 195.802 110.006,195.600 109.218,195.600 108.167 C 195.600 107.195,195.420 106.400,195.200 106.400 C 194.980 106.400,194.806 107.075,194.813 107.900 M212.700 107.028 C 212.535 107.196,212.400 107.879,212.400 108.547 C 212.400 109.414,212.523 109.637,212.831 109.329 C 213.068 109.092,213.203 108.408,213.131 107.810 C 213.059 107.212,212.865 106.861,212.700 107.028 M211.600 111.000 C 211.600 111.330,211.780 111.600,212.000 111.600 C 212.220 111.600,212.400 111.330,212.400 111.000 C 212.400 110.670,212.220 110.400,212.000 110.400 C 211.780 110.400,211.600 110.670,211.600 111.000 M194.060 111.300 C 193.785 111.575,193.430 111.800,193.270 111.800 C 192.730 111.800,190.676 113.609,190.929 113.862 C 191.067 114.000,191.539 113.683,191.977 113.157 C 192.415 112.630,192.779 112.345,192.787 112.523 C 192.804 112.934,195.200 111.535,195.200 111.114 C 195.200 110.642,194.624 110.736,194.060 111.300 M115.009 112.124 C 113.092 113.278,112.399 117.104,113.900 118.243 C 115.420 119.397,118.800 118.595,118.800 117.080 C 118.800 116.208,118.135 115.872,117.854 116.602 C 117.161 118.410,113.874 116.830,114.069 114.782 C 114.237 113.011,117.069 112.645,117.795 114.300 C 118.336 115.533,118.881 115.433,118.727 114.130 C 118.531 112.476,116.365 111.307,115.009 112.124 M210.332 112.760 C 210.071 113.178,209.643 113.438,209.380 113.337 C 209.118 113.236,208.799 113.425,208.672 113.757 C 208.504 114.194,208.627 114.291,209.120 114.109 C 209.947 113.806,211.714 112.000,211.184 112.000 C 210.977 112.000,210.593 112.342,210.332 112.760 M196.918 113.779 C 196.535 114.215,196.574 114.381,197.110 114.587 C 197.481 114.729,197.848 114.655,197.926 114.423 C 198.143 113.772,198.988 113.918,200.109 114.800 C 201.192 115.652,202.400 115.863,202.400 115.200 C 202.400 114.980,201.984 114.800,201.475 114.800 C 200.967 114.800,200.164 114.440,199.692 114.000 C 198.702 113.077,197.611 112.991,196.918 113.779 M194.865 115.394 C 194.320 115.694,194.104 116.017,194.348 116.168 C 194.796 116.444,196.400 115.612,196.400 115.104 C 196.400 114.697,195.988 114.775,194.865 115.394 M203.400 115.600 C 204.173 116.454,205.393 116.658,205.800 116.000 C 205.936 115.780,206.397 115.600,206.824 115.600 C 207.251 115.600,207.600 115.420,207.600 115.200 C 207.600 114.977,206.513 114.800,205.138 114.800 C 202.701 114.800,202.683 114.808,203.400 115.600 M185.200 116.702 C 185.200 116.869,184.660 117.244,184.000 117.536 C 182.846 118.047,182.369 118.800,183.200 118.800 C 183.420 118.800,183.600 118.664,183.600 118.498 C 183.600 118.331,184.140 117.956,184.800 117.664 C 185.954 117.153,186.431 116.400,185.600 116.400 C 185.380 116.400,185.200 116.536,185.200 116.702 M110.872 120.603 C 109.915 121.704,109.592 125.797,110.440 126.080 C 110.682 126.161,110.142 126.964,109.240 127.866 C 107.604 129.502,106.824 132.867,107.988 133.267 C 108.824 133.554,108.635 135.392,107.757 135.519 C 107.293 135.586,106.678 136.081,106.389 136.620 C 105.798 137.725,106.245 138.577,106.850 137.497 C 107.250 136.782,108.313 136.627,109.900 137.052 C 110.640 137.251,110.800 137.573,110.800 138.870 C 110.800 139.820,110.959 140.349,111.200 140.200 C 111.693 139.895,111.732 137.329,111.248 137.030 C 110.755 136.725,110.432 134.800,110.874 134.800 C 112.642 134.800,114.081 129.841,112.711 128.471 C 112.325 128.085,112.588 127.646,113.957 126.395 C 115.891 124.626,116.442 121.584,115.075 120.218 C 114.090 119.233,111.888 119.435,110.872 120.603 M114.168 121.165 C 115.907 123.086,113.517 125.935,111.612 124.211 C 110.151 122.889,110.811 120.448,112.638 120.415 C 113.099 120.407,113.787 120.744,114.168 121.165 M184.931 122.140 C 184.309 122.658,183.575 123.003,183.300 122.907 C 183.025 122.812,182.800 122.898,182.800 123.100 C 182.800 123.744,184.177 123.500,184.847 122.737 C 185.203 122.332,185.788 122.000,186.147 122.000 C 186.506 122.000,186.800 121.820,186.800 121.600 C 186.800 120.947,186.134 121.139,184.931 122.140 M176.060 122.642 C 175.205 123.608,175.850 123.771,176.849 122.840 C 177.462 122.269,177.567 122.005,177.175 122.015 C 176.859 122.024,176.357 122.305,176.060 122.642 M172.200 125.200 C 171.802 125.640,171.601 126.000,171.755 126.000 C 171.908 126.000,172.420 125.640,172.892 125.200 C 173.364 124.760,173.565 124.400,173.337 124.400 C 173.110 124.400,172.598 124.760,172.200 125.200 M178.000 126.400 C 178.000 126.620,177.595 126.803,177.100 126.806 C 176.416 126.811,176.336 126.898,176.764 127.169 C 177.112 127.390,177.610 127.351,178.064 127.067 C 178.862 126.569,179.041 126.000,178.400 126.000 C 178.180 126.000,178.000 126.180,178.000 126.400 M175.600 128.000 C 175.600 128.220,175.240 128.400,174.800 128.400 C 174.360 128.400,174.000 128.580,174.000 128.800 C 174.000 129.020,173.730 129.200,173.400 129.200 C 173.070 129.200,172.800 129.344,172.800 129.520 C 172.800 129.695,172.170 130.067,171.400 130.346 C 170.630 130.624,170.000 131.020,170.000 131.226 C 170.000 131.432,169.798 131.600,169.552 131.600 C 167.591 131.600,165.142 134.330,166.277 135.251 C 166.701 135.595,166.845 135.619,166.662 135.314 C 166.478 135.008,166.894 134.488,167.780 133.914 C 168.555 133.411,169.192 132.745,169.195 132.433 C 169.198 132.122,169.315 131.981,169.455 132.122 C 169.595 132.262,170.208 132.022,170.817 131.588 C 171.425 131.155,172.211 130.800,172.562 130.800 C 172.913 130.800,173.200 130.620,173.200 130.400 C 173.200 130.180,173.425 130.000,173.700 129.999 C 173.975 129.999,174.830 129.459,175.600 128.800 C 176.623 127.925,176.811 127.602,176.300 127.601 C 175.915 127.600,175.600 127.780,175.600 128.000 M111.013 128.980 C 113.270 129.923,112.652 132.749,110.180 132.787 C 109.022 132.805,108.400 132.041,108.400 130.600 C 108.400 128.546,109.034 128.153,111.013 128.980 M166.353 128.700 C 166.327 128.865,166.331 129.148,166.363 129.330 C 166.394 129.511,166.215 129.533,165.965 129.378 C 165.715 129.224,165.396 129.256,165.255 129.449 C 164.700 130.213,163.039 130.918,162.885 130.454 C 162.698 129.893,161.337 129.854,161.000 130.400 C 160.864 130.620,161.123 130.800,161.576 130.800 C 162.029 130.800,162.400 130.980,162.400 131.200 C 162.400 132.021,164.179 131.557,165.848 130.300 C 167.669 128.929,167.990 128.400,167.000 128.400 C 166.670 128.400,166.379 128.535,166.353 128.700 M149.029 130.609 C 148.605 130.929,148.355 131.288,148.473 131.406 C 148.590 131.524,149.117 131.261,149.643 130.823 C 150.737 129.912,150.198 129.724,149.029 130.609 M146.629 132.209 C 146.205 132.529,145.935 132.868,146.029 132.961 C 146.123 133.055,146.625 132.787,147.144 132.366 C 148.238 131.479,147.779 131.339,146.629 132.209 M144.000 135.799 C 143.706 136.349,143.567 136.900,143.691 137.024 C 143.815 137.148,144.192 136.699,144.528 136.025 C 145.256 134.565,144.772 134.358,144.000 135.799 M166.989 136.018 C 166.847 136.247,166.926 136.670,167.165 136.958 C 167.404 137.246,167.639 137.958,167.687 138.540 C 167.735 139.123,167.915 139.600,168.087 139.600 C 168.609 139.600,168.413 137.850,167.800 137.041 C 167.484 136.624,167.320 136.129,167.436 135.941 C 167.552 135.753,167.557 135.600,167.447 135.600 C 167.337 135.600,167.131 135.788,166.989 136.018 M143.077 138.700 C 142.751 139.276,142.902 144.816,143.249 145.031 C 143.442 145.150,143.600 143.707,143.600 141.824 C 143.600 138.618,143.491 137.969,143.077 138.700 M106.000 140.600 C 106.000 141.733,106.152 142.000,106.800 142.000 C 107.240 142.000,107.600 142.141,107.600 142.314 C 107.600 142.487,107.960 142.629,108.400 142.629 C 108.840 142.629,109.200 142.487,109.200 142.314 C 109.200 142.141,109.560 142.000,110.000 142.000 C 110.440 142.000,110.800 141.741,110.800 141.424 C 110.800 140.692,110.118 140.246,109.917 140.848 C 109.671 141.586,107.135 140.837,106.905 139.958 C 106.575 138.698,106.000 139.107,106.000 140.600 M105.726 144.100 C 104.079 146.660,103.983 148.385,105.400 149.913 C 106.488 151.087,106.654 151.600,105.944 151.600 C 104.146 151.600,103.740 157.140,105.432 158.593 C 106.300 159.340,106.379 159.571,105.932 160.055 C 102.818 163.427,105.798 168.902,109.300 166.243 C 110.478 165.349,110.123 164.860,108.458 165.083 C 106.380 165.362,105.200 164.685,105.200 163.213 C 105.200 161.872,106.007 161.470,108.304 161.668 C 109.462 161.768,109.819 161.642,109.924 161.098 C 109.998 160.714,109.865 160.400,109.629 160.400 C 109.393 160.400,109.200 159.860,109.200 159.200 C 109.200 158.540,109.380 158.000,109.600 158.000 C 110.289 158.000,110.073 153.283,109.332 152.152 C 108.817 151.367,108.777 151.061,109.158 150.826 C 110.881 149.761,111.213 146.162,109.735 144.568 C 108.747 143.502,106.294 143.216,105.726 144.100 M109.300 145.357 C 110.188 146.031,110.234 148.225,109.367 148.557 C 107.299 149.351,105.200 148.469,105.200 146.806 C 105.200 144.986,107.664 144.115,109.300 145.357 M167.256 146.532 C 166.342 147.634,166.554 148.801,167.800 149.514 C 168.460 149.891,169.060 150.335,169.133 150.500 C 169.322 150.925,170.800 150.874,170.800 150.443 C 170.800 150.131,169.837 149.535,169.171 149.435 C 168.159 149.281,167.055 146.800,168.000 146.800 C 168.220 146.800,168.400 146.620,168.400 146.400 C 168.400 145.833,167.777 145.905,167.256 146.532 M146.954 151.308 C 146.799 151.579,146.818 151.668,146.996 151.506 C 147.175 151.345,147.536 151.507,147.799 151.867 C 148.063 152.227,148.384 152.350,148.513 152.141 C 148.642 151.931,148.408 151.548,147.993 151.288 C 147.407 150.923,147.173 150.927,146.954 151.308 M163.200 151.600 C 162.883 152.040,162.393 152.400,162.112 152.400 C 161.830 152.400,161.600 152.580,161.600 152.800 C 161.600 153.020,161.769 153.200,161.976 153.200 C 162.183 153.200,162.464 153.020,162.600 152.800 C 162.736 152.580,163.182 152.400,163.590 152.400 C 163.999 152.400,164.398 152.207,164.476 151.971 C 164.555 151.734,165.199 152.094,165.906 152.771 C 166.614 153.447,167.464 154.000,167.796 154.000 C 168.128 154.000,168.400 154.199,168.400 154.443 C 168.400 154.686,168.634 154.796,168.921 154.686 C 169.207 154.576,169.856 154.917,170.363 155.443 C 171.363 156.482,171.817 156.620,172.200 156.000 C 172.336 155.780,172.165 155.600,171.820 155.600 C 171.475 155.600,170.634 155.066,169.951 154.414 C 169.268 153.761,168.190 152.997,167.555 152.716 C 166.920 152.435,166.400 152.069,166.400 151.902 C 166.400 151.736,166.130 151.600,165.800 151.600 C 165.470 151.600,165.200 151.420,165.200 151.200 C 165.200 150.493,163.796 150.774,163.200 151.600 M171.490 151.624 C 171.602 152.051,172.032 152.400,172.447 152.400 C 172.861 152.400,173.200 152.559,173.200 152.753 C 173.200 152.948,173.515 153.218,173.900 153.354 C 174.285 153.489,174.825 153.705,175.100 153.834 C 175.375 153.962,175.600 153.872,175.600 153.633 C 175.600 153.395,175.364 153.200,175.075 153.200 C 174.787 153.200,174.193 152.885,173.755 152.500 C 172.167 151.103,171.263 150.753,171.490 151.624 M109.200 155.022 L 109.200 156.844 107.300 156.722 C 105.196 156.587,104.042 153.956,105.878 153.480 C 108.533 152.792,109.200 153.101,109.200 155.022 M176.400 155.000 C 177.709 155.748,178.418 155.739,177.424 154.987 C 176.996 154.664,176.366 154.406,176.024 154.414 C 175.624 154.423,175.759 154.634,176.400 155.000 M172.400 156.629 C 172.400 157.021,173.522 158.000,173.971 158.000 C 174.557 158.000,174.509 157.652,173.829 156.971 C 173.258 156.401,172.400 156.195,172.400 156.629 M174.800 158.229 C 174.800 158.807,176.085 159.653,176.640 159.440 C 177.191 159.229,177.193 159.136,176.658 158.601 C 176.077 158.020,174.800 157.764,174.800 158.229 M177.200 159.932 C 177.200 160.424,179.152 161.381,179.482 161.051 C 179.638 160.896,179.368 160.664,178.883 160.537 C 178.397 160.411,178.000 160.148,178.000 159.953 C 178.000 159.759,177.820 159.600,177.600 159.600 C 177.380 159.600,177.200 159.750,177.200 159.932 M180.598 162.003 C 180.461 162.224,180.676 162.527,181.075 162.675 C 181.474 162.823,182.091 163.272,182.447 163.672 C 182.803 164.073,183.322 164.400,183.600 164.400 C 183.878 164.400,184.437 164.781,184.841 165.247 C 185.339 165.821,185.806 166.002,186.288 165.807 C 186.890 165.563,186.799 165.421,185.700 164.887 C 184.985 164.539,184.400 164.108,184.400 163.927 C 184.400 163.747,184.130 163.600,183.800 163.600 C 183.470 163.600,183.200 163.420,183.200 163.200 C 183.200 162.980,182.949 162.800,182.643 162.800 C 182.336 162.800,181.982 162.530,181.855 162.200 C 181.591 161.511,180.963 161.413,180.598 162.003 M110.000 163.400 C 110.000 163.996,110.172 164.341,110.400 164.200 C 110.620 164.064,110.800 163.704,110.800 163.400 C 110.800 163.096,110.620 162.736,110.400 162.600 C 110.172 162.459,110.000 162.804,110.000 163.400 M189.458 163.107 C 189.354 163.275,189.699 163.617,190.226 163.865 C 191.099 164.277,191.148 164.250,190.778 163.559 C 190.357 162.772,189.786 162.576,189.458 163.107 M192.266 164.693 C 191.910 165.269,192.650 166.088,193.392 165.939 C 194.028 165.812,194.018 165.737,193.284 165.074 C 192.841 164.675,192.383 164.503,192.266 164.693 M186.800 166.229 C 186.800 166.793,188.078 167.656,188.610 167.451 C 188.935 167.327,189.200 167.412,189.200 167.641 C 189.200 168.268,190.259 169.200,190.971 169.200 C 191.317 169.200,191.600 169.380,191.600 169.600 C 191.600 169.820,191.878 170.000,192.217 170.000 C 192.556 170.000,193.220 170.360,193.692 170.800 C 194.630 171.673,195.200 171.825,195.200 171.200 C 195.200 170.980,194.970 170.800,194.688 170.800 C 194.407 170.800,193.917 170.440,193.600 170.000 C 193.283 169.560,192.746 169.200,192.408 169.200 C 192.069 169.200,191.577 168.854,191.313 168.432 C 191.049 168.009,190.196 167.433,189.417 167.152 C 188.637 166.870,188.000 166.495,188.000 166.320 C 188.000 166.144,187.730 166.000,187.400 166.000 C 187.070 166.000,186.800 166.103,186.800 166.229 M106.662 168.331 C 105.920 169.152,105.796 170.226,106.400 170.600 C 106.620 170.736,106.800 170.581,106.800 170.255 C 106.800 169.564,108.812 169.023,109.991 169.397 C 111.272 169.804,110.931 168.924,109.539 168.229 C 107.919 167.421,107.471 167.437,106.662 168.331 M110.800 171.557 C 110.800 172.913,110.658 173.153,109.700 173.424 C 108.016 173.900,107.847 173.880,107.159 173.121 C 106.271 172.142,105.904 172.682,106.667 173.846 C 107.671 175.379,110.141 175.202,110.971 173.539 C 111.675 172.126,111.813 170.000,111.200 170.000 C 110.980 170.000,110.800 170.700,110.800 171.557 M195.600 171.932 C 195.600 172.115,196.095 172.520,196.700 172.832 C 197.305 173.145,198.147 173.713,198.571 174.096 C 199.748 175.158,199.824 174.588,198.661 173.424 C 198.097 172.861,197.358 172.400,197.018 172.400 C 196.678 172.400,196.400 172.220,196.400 172.000 C 196.400 171.780,196.220 171.600,196.000 171.600 C 195.780 171.600,195.600 171.750,195.600 171.932 M205.800 174.000 C 206.564 174.845,207.600 175.075,207.600 174.400 C 207.600 174.180,207.240 174.000,206.800 174.000 C 206.360 174.000,206.000 173.820,206.000 173.600 C 206.000 173.380,205.792 173.200,205.538 173.200 C 205.276 173.200,205.389 173.546,205.800 174.000 M200.400 175.029 C 200.400 175.553,201.627 176.430,202.021 176.187 C 202.293 176.019,202.186 175.724,201.724 175.374 C 200.959 174.794,200.400 174.648,200.400 175.029 M209.200 175.987 C 209.200 176.177,209.740 176.572,210.400 176.864 C 211.060 177.156,211.600 177.531,211.600 177.698 C 211.600 177.864,211.780 178.000,212.000 178.000 C 212.872 178.000,212.318 177.305,210.800 176.494 C 209.920 176.025,209.200 175.796,209.200 175.987 M108.100 176.998 C 107.190 178.032,107.488 180.578,108.655 181.745 C 111.512 184.603,114.530 181.423,112.700 177.483 C 112.124 176.242,109.051 175.918,108.100 176.998 M202.800 176.629 C 202.800 177.359,204.038 178.017,204.694 177.635 C 205.328 177.266,205.308 177.223,204.500 177.212 C 204.005 177.205,203.600 177.020,203.600 176.800 C 203.600 176.580,203.420 176.400,203.200 176.400 C 202.980 176.400,202.800 176.503,202.800 176.629 M111.700 177.757 C 113.536 179.150,111.917 181.909,109.566 181.393 C 107.650 180.972,107.771 177.194,109.700 177.213 C 110.415 177.220,111.315 177.465,111.700 177.757 M208.406 180.411 C 208.645 180.857,208.997 181.126,209.188 181.007 C 209.379 180.889,209.891 181.244,210.326 181.796 C 210.760 182.348,211.364 182.800,211.669 182.800 C 211.974 182.800,212.483 183.160,212.800 183.600 C 213.117 184.040,213.661 184.400,214.008 184.400 C 214.356 184.400,214.856 184.616,215.120 184.880 C 215.446 185.206,215.731 185.229,216.008 184.952 C 216.286 184.674,216.061 184.362,215.308 183.975 C 214.699 183.662,213.909 183.089,213.553 182.703 C 213.197 182.316,212.700 182.000,212.448 182.000 C 211.807 182.000,210.332 181.133,209.557 180.300 C 208.621 179.294,207.848 179.369,208.406 180.411 M215.908 180.400 C 216.380 180.840,216.892 181.200,217.045 181.200 C 217.199 181.200,216.998 180.840,216.600 180.400 C 216.202 179.960,215.690 179.600,215.463 179.600 C 215.235 179.600,215.436 179.960,215.908 180.400 M110.496 184.395 C 108.968 186.842,110.633 190.800,113.193 190.800 L 114.492 190.800 113.822 191.823 C 113.164 192.826,113.148 195.031,113.783 197.000 C 114.037 197.789,115.665 198.800,116.680 198.800 C 117.049 198.800,117.200 199.497,117.200 201.200 C 117.200 202.533,117.378 203.600,117.600 203.600 C 117.820 203.600,118.000 202.989,118.000 202.243 C 118.000 200.734,118.478 200.400,120.636 200.400 C 121.907 200.400,121.970 200.342,121.507 199.600 C 121.216 199.134,120.574 198.800,119.970 198.800 C 118.515 198.800,118.323 198.453,119.075 197.180 C 120.041 195.546,118.822 194.184,117.796 195.750 C 116.490 197.743,114.000 197.391,114.000 195.213 C 114.000 193.188,116.397 192.054,117.771 193.429 C 118.280 193.937,118.400 193.950,118.400 193.495 C 118.400 192.890,116.252 190.800,115.631 190.800 C 115.400 190.800,115.395 190.314,115.620 189.531 C 115.820 188.833,115.842 188.068,115.669 187.831 C 115.495 187.594,115.385 186.986,115.423 186.479 C 115.577 184.444,111.534 182.733,110.496 184.395 M114.721 186.854 C 114.852 188.416,114.045 189.610,112.871 189.587 C 110.540 189.543,109.956 186.028,112.200 185.545 C 114.228 185.108,114.591 185.296,114.721 186.854 M216.400 185.429 C 216.400 185.821,217.522 186.800,217.971 186.800 C 218.207 186.800,218.400 186.620,218.400 186.400 C 218.400 186.180,218.130 186.000,217.800 186.000 C 217.470 186.000,217.200 185.820,217.200 185.600 C 217.200 185.380,217.020 185.200,216.800 185.200 C 216.580 185.200,216.400 185.303,216.400 185.429 M218.800 187.029 C 218.800 187.421,219.922 188.400,220.371 188.400 C 220.607 188.400,220.800 188.220,220.800 188.000 C 220.800 187.780,220.530 187.600,220.200 187.600 C 219.870 187.600,219.600 187.420,219.600 187.200 C 219.600 186.980,219.420 186.800,219.200 186.800 C 218.980 186.800,218.800 186.903,218.800 187.029 M227.600 187.983 C 227.600 188.197,227.960 188.565,228.400 188.800 C 228.840 189.035,229.200 189.085,229.200 188.910 C 229.200 188.735,228.840 188.368,228.400 188.093 C 227.957 187.816,227.600 187.767,227.600 187.983 M221.200 188.704 C 221.200 189.250,222.746 190.011,223.005 189.592 C 223.138 189.376,222.967 189.200,222.624 189.200 C 222.281 189.200,222.000 189.020,222.000 188.800 C 222.000 188.580,221.820 188.400,221.600 188.400 C 221.380 188.400,221.200 188.537,221.200 188.704 M230.000 189.429 C 230.000 189.727,231.075 190.800,231.375 190.800 C 231.502 190.800,231.382 190.440,231.107 190.000 C 230.638 189.249,230.000 188.920,230.000 189.429 M223.600 190.229 C 223.600 190.686,224.758 191.600,225.338 191.600 C 225.665 191.600,226.014 191.825,226.112 192.100 C 226.210 192.375,226.427 192.474,226.593 192.319 C 226.928 192.007,226.232 191.263,224.890 190.500 C 223.923 189.950,223.600 189.882,223.600 190.229 M232.000 191.200 C 232.000 191.420,232.165 191.600,232.367 191.600 C 232.569 191.600,233.064 191.725,233.467 191.878 C 234.154 192.138,234.157 192.112,233.529 191.478 C 232.783 190.726,232.000 190.583,232.000 191.200 M228.415 193.584 C 229.177 194.235,230.025 194.775,230.300 194.784 C 230.575 194.793,230.800 194.980,230.800 195.200 C 230.800 195.420,231.036 195.600,231.325 195.600 C 231.613 195.600,232.198 195.915,232.625 196.300 C 233.051 196.685,233.925 197.270,234.567 197.600 C 235.208 197.930,236.229 198.695,236.836 199.300 C 237.442 199.905,238.132 200.400,238.369 200.400 C 238.606 200.400,238.800 200.850,238.800 201.400 C 238.800 201.950,238.980 202.400,239.200 202.400 C 239.764 202.400,239.699 199.859,239.120 199.280 C 238.856 199.016,238.318 198.800,237.925 198.800 C 237.285 198.800,236.444 198.265,235.055 196.978 C 234.501 196.464,233.112 195.849,232.700 195.936 C 232.535 195.971,232.400 195.742,232.400 195.426 C 232.400 195.110,231.775 194.626,231.010 194.349 C 230.246 194.073,229.703 193.764,229.804 193.663 C 230.116 193.351,228.645 192.426,227.815 192.413 C 227.175 192.402,227.286 192.619,228.415 193.584 M236.000 193.600 C 236.000 193.820,236.206 194.000,236.457 194.000 C 236.708 194.000,237.419 194.529,238.036 195.175 C 239.352 196.552,240.463 197.203,241.474 197.191 C 242.370 197.180,240.976 195.992,238.876 194.979 C 238.148 194.627,237.453 194.083,237.333 193.770 C 237.086 193.125,236.000 192.987,236.000 193.600 M121.987 202.100 C 121.966 203.593,120.997 204.520,119.662 204.324 C 118.779 204.194,118.536 204.289,118.695 204.703 C 118.843 205.090,119.456 205.215,120.753 205.122 L 122.600 204.989 122.722 203.095 C 122.795 201.956,122.676 201.200,122.422 201.200 C 122.190 201.200,121.994 201.605,121.987 202.100 M256.781 201.700 C 256.522 203.067,256.512 205.578,256.766 205.421 C 257.080 205.227,257.237 201.600,256.931 201.600 C 256.859 201.600,256.791 201.645,256.781 201.700 M121.811 206.498 C 121.121 207.880,120.994 210.000,121.600 210.000 C 121.820 210.000,122.000 209.593,122.000 209.096 C 122.000 208.098,123.152 207.211,125.000 206.787 C 125.940 206.572,126.048 206.457,125.500 206.256 C 125.115 206.115,124.485 205.883,124.100 205.740 C 122.678 205.211,122.409 205.300,121.811 206.498 M238.800 206.354 C 238.800 206.552,239.081 206.822,239.425 206.954 C 239.769 207.086,239.940 207.374,239.804 207.594 C 239.552 208.001,241.502 210.231,241.827 209.907 C 241.925 209.809,241.644 209.402,241.202 209.002 C 240.761 208.603,240.400 207.987,240.400 207.634 C 240.400 207.281,240.040 206.768,239.600 206.493 C 239.160 206.218,238.800 206.155,238.800 206.354 M126.231 208.191 C 126.908 209.224,125.329 211.600,123.964 211.600 C 123.122 211.600,124.014 212.197,124.935 212.249 C 125.411 212.277,126.025 212.322,126.300 212.349 C 126.873 212.407,126.985 214.239,126.436 214.578 C 126.123 214.771,126.114 215.066,126.379 216.400 C 126.400 216.510,126.698 216.032,127.040 215.338 C 127.722 213.956,128.584 213.555,129.859 214.026 C 131.512 214.637,131.293 217.295,129.537 217.945 C 128.984 218.150,128.829 218.371,129.115 218.548 C 129.364 218.701,129.890 218.654,130.284 218.443 C 130.678 218.231,131.315 217.961,131.700 217.842 C 132.979 217.446,132.200 213.211,130.847 213.203 C 130.271 213.200,127.637 210.619,127.550 209.972 C 127.446 209.198,127.356 208.976,126.789 208.100 C 126.469 207.605,126.067 207.200,125.895 207.200 C 125.722 207.200,125.874 207.646,126.231 208.191 M254.235 209.403 C 253.595 209.953,253.181 210.515,253.316 210.650 C 253.560 210.893,254.093 210.442,255.149 209.098 C 255.915 208.124,255.601 208.228,254.235 209.403 M245.400 212.000 C 245.536 212.220,245.907 212.400,246.224 212.400 C 246.541 212.400,246.800 212.220,246.800 212.000 C 246.800 211.780,246.429 211.600,245.976 211.600 C 245.523 211.600,245.264 211.780,245.400 212.000 M250.000 212.000 C 250.000 212.220,250.259 212.400,250.576 212.400 C 250.893 212.400,251.264 212.220,251.400 212.000 C 251.536 211.780,251.277 211.600,250.824 211.600 C 250.371 211.600,250.000 211.780,250.000 212.000 M132.679 219.100 C 132.586 219.265,132.393 219.940,132.249 220.600 L 131.988 221.800 132.827 220.700 C 133.671 219.595,136.400 219.060,136.400 220.000 C 136.400 220.220,136.582 220.400,136.803 220.400 C 137.043 220.400,137.003 220.074,136.707 219.600 C 136.204 218.794,133.069 218.405,132.679 219.100 M137.365 221.100 C 137.520 221.375,137.478 221.600,137.270 221.600 C 137.063 221.600,136.799 221.960,136.684 222.399 C 136.569 222.838,136.053 223.360,135.538 223.559 C 134.390 224.001,135.336 224.549,136.871 224.332 C 137.938 224.180,138.436 221.846,137.570 221.049 C 137.205 220.712,137.153 220.725,137.365 221.100 M138.500 224.998 C 137.903 225.677,137.835 227.851,138.400 228.200 C 138.628 228.341,138.800 227.995,138.800 227.395 C 138.800 225.994,139.666 225.200,141.195 225.200 C 141.928 225.200,142.345 225.034,142.200 224.800 C 141.829 224.200,139.073 224.348,138.500 224.998 M142.787 226.700 C 142.770 228.213,141.919 229.200,140.632 229.200 C 140.014 229.200,139.659 229.371,139.800 229.600 C 140.175 230.206,143.179 230.078,143.829 229.429 C 144.551 228.706,144.545 228.413,143.771 226.861 C 142.999 225.314,142.804 225.282,142.787 226.700 M144.883 230.335 C 144.297 231.577,144.250 233.200,144.800 233.200 C 145.020 233.200,145.200 232.870,145.200 232.468 C 145.200 232.065,145.650 231.494,146.200 231.200 C 146.750 230.906,147.200 230.532,147.200 230.370 C 147.200 230.208,147.649 230.283,148.197 230.538 C 149.985 231.367,149.100 234.000,147.032 234.000 C 146.414 234.000,146.059 234.171,146.200 234.400 C 147.022 235.729,149.993 234.209,149.997 232.458 C 150.003 229.828,145.922 228.134,144.883 230.335 M152.500 234.544 C 150.624 235.473,152.202 239.600,154.434 239.600 C 155.676 239.600,157.523 236.826,156.688 236.215 C 156.317 235.943,156.121 235.612,156.254 235.479 C 157.261 234.472,154.190 233.707,152.500 234.544 M155.646 235.500 C 155.779 237.523,155.189 238.800,154.122 238.800 C 152.677 238.800,151.811 236.349,152.880 235.280 C 153.642 234.518,155.592 234.673,155.646 235.500 M159.368 238.558 C 158.783 239.185,158.892 241.348,159.549 242.139 C 160.780 243.622,164.400 242.696,164.400 240.898 C 164.400 239.062,160.564 237.278,159.368 238.558 M162.600 240.400 C 162.600 241.729,162.524 241.806,161.100 241.924 C 159.441 242.061,159.084 241.225,160.100 239.580 C 160.976 238.162,162.600 238.695,162.600 240.400 M166.267 241.467 C 165.711 242.022,166.032 243.905,166.800 244.600 C 167.577 245.303,167.600 245.299,167.600 244.436 C 167.600 242.340,169.648 241.009,170.116 242.800 C 170.482 244.200,169.988 245.200,168.930 245.200 C 168.380 245.200,168.061 245.375,168.200 245.600 C 168.820 246.603,171.600 244.967,171.600 243.600 C 171.600 241.993,167.415 240.319,166.267 241.467 M175.500 244.264 C 173.602 244.792,175.179 248.400,177.308 248.400 C 178.189 248.400,179.893 245.324,179.319 244.770 C 178.889 244.355,176.370 244.021,175.500 244.264 M177.778 245.564 C 178.110 246.102,177.592 247.200,177.006 247.200 C 176.087 247.200,175.361 245.996,176.026 245.576 C 176.765 245.108,177.493 245.103,177.778 245.564 M182.800 247.338 C 182.800 250.580,186.502 251.121,186.644 247.900 L 186.728 246.000 184.764 246.000 C 182.803 246.000,182.800 246.002,182.800 247.338 M216.285 246.796 C 216.096 247.521,216.148 247.541,216.885 247.026 C 217.329 246.715,217.941 246.556,218.246 246.673 C 218.551 246.790,218.800 246.686,218.800 246.443 C 218.800 245.612,216.511 245.933,216.285 246.796 M186.102 247.300 C 186.477 248.416,185.909 249.245,184.851 249.122 C 182.984 248.904,183.358 246.824,185.267 246.806 C 185.633 246.803,186.009 247.025,186.102 247.300 M191.300 247.883 C 190.128 250.405,192.783 251.947,194.730 249.874 C 195.884 248.646,195.823 247.906,194.517 247.300 C 192.823 246.513,191.855 246.689,191.300 247.883 M207.600 248.613 C 207.600 250.543,208.195 251.156,209.500 250.572 C 210.109 250.300,210.080 250.238,209.277 250.099 C 207.748 249.833,208.332 248.572,209.912 248.726 C 211.314 248.862,211.409 248.737,210.786 247.574 C 209.843 245.812,207.600 246.544,207.600 248.613 M193.748 248.500 C 194.127 249.914,194.073 250.000,192.800 250.000 C 191.911 250.000,191.600 249.813,191.600 249.280 C 191.600 247.665,193.353 247.028,193.748 248.500 M198.813 248.480 C 198.843 250.655,201.476 251.782,202.990 250.267 C 204.399 248.858,203.636 247.812,201.100 247.680 C 198.929 247.567,198.801 247.612,198.813 248.480 M202.000 249.351 C 202.000 250.285,200.937 250.934,200.647 250.177 C 200.237 249.110,200.361 248.800,201.200 248.800 C 201.640 248.800,202.000 249.048,202.000 249.351 " stroke="none" fill="#615092" fill-rule="evenodd"></path><path id="path1" d="M128.400 94.600 C 128.400 94.930,128.580 95.200,128.800 95.200 C 129.020 95.200,129.200 94.930,129.200 94.600 C 129.200 94.270,129.020 94.000,128.800 94.000 C 128.580 94.000,128.400 94.270,128.400 94.600 M202.206 99.018 C 198.718 99.975,195.485 104.726,196.727 107.070 C 197.384 108.311,196.924 111.638,196.007 112.280 C 194.652 113.229,195.109 113.650,196.616 112.842 C 198.051 112.074,199.301 112.121,200.400 112.985 C 202.268 114.454,206.001 114.408,207.703 112.896 C 208.089 112.552,208.809 112.072,209.303 111.829 C 209.848 111.561,210.447 110.645,210.829 109.498 C 211.175 108.458,211.580 107.486,211.729 107.337 C 213.460 105.606,210.055 100.683,205.881 98.883 C 204.581 98.322,204.772 98.315,202.206 99.018 M112.438 121.976 C 111.834 122.350,112.112 123.600,112.800 123.600 C 113.386 123.600,113.786 122.426,113.350 121.990 C 113.149 121.789,112.751 121.783,112.438 121.976 M167.693 130.400 C 167.293 131.041,167.293 131.197,167.697 131.187 C 168.269 131.173,169.600 130.242,169.600 129.856 C 169.600 129.254,168.150 129.668,167.693 130.400 M109.600 130.600 C 109.600 130.933,109.956 131.200,110.400 131.200 C 110.844 131.200,111.200 130.933,111.200 130.600 C 111.200 130.267,110.844 130.000,110.400 130.000 C 109.956 130.000,109.600 130.267,109.600 130.600 M154.791 130.411 C 148.763 131.410,142.851 138.066,144.338 142.178 C 144.592 142.881,144.800 144.021,144.800 144.710 C 144.800 146.069,145.533 148.000,146.050 148.000 C 146.226 148.000,147.541 149.095,148.971 150.432 C 150.401 151.770,151.713 152.781,151.886 152.679 C 152.509 152.312,154.087 153.195,153.861 153.785 C 153.688 154.237,153.834 154.293,154.519 154.040 C 155.004 153.861,155.625 153.794,155.900 153.891 C 156.175 153.988,156.400 153.891,156.400 153.677 C 156.400 153.462,156.865 153.170,157.432 153.028 C 158.000 152.885,159.125 152.340,159.932 151.816 C 161.297 150.929,165.361 149.498,165.665 149.796 C 165.739 149.869,165.804 149.149,165.810 148.196 C 165.816 147.094,166.084 146.170,166.545 145.661 C 167.801 144.273,166.977 137.639,165.355 136.084 C 164.313 135.085,164.112 133.656,164.900 132.845 C 165.303 132.430,165.245 132.350,164.600 132.431 C 163.308 132.592,160.680 131.944,159.600 131.198 C 158.402 130.371,156.707 130.093,154.791 130.411 M107.828 138.355 C 107.707 138.550,107.838 138.899,108.118 139.132 C 108.735 139.644,109.818 139.076,109.428 138.445 C 109.099 137.912,108.135 137.858,107.828 138.355 M106.831 146.562 C 106.267 147.242,106.567 148.000,107.400 148.000 C 108.266 148.000,108.554 147.182,107.913 146.542 C 107.404 146.033,107.269 146.035,106.831 146.562 M155.400 154.400 L 154.200 154.705 155.400 154.747 C 156.060 154.769,156.870 154.613,157.200 154.400 C 157.943 153.920,157.287 153.920,155.400 154.400 M244.600 196.554 C 243.940 196.842,243.153 197.375,242.851 197.739 C 242.549 198.102,241.862 198.400,241.324 198.400 C 240.493 198.400,240.389 198.535,240.631 199.297 C 240.787 199.791,240.880 201.409,240.837 202.894 C 240.626 210.112,248.220 213.793,252.974 208.776 C 253.795 207.909,254.602 207.200,254.767 207.200 C 254.931 207.200,255.235 206.615,255.441 205.900 C 257.202 199.805,250.465 193.998,244.600 196.554 " stroke="none" fill="#8c55f6" fill-rule="evenodd"></path><path id="path2" d="M200.800 60.800 C 200.800 61.240,200.980 61.600,201.200 61.600 C 201.420 61.600,201.600 61.240,201.600 60.800 C 201.600 60.360,201.420 60.000,201.200 60.000 C 200.980 60.000,200.800 60.360,200.800 60.800 M192.000 61.371 C 192.000 62.145,192.205 62.400,192.828 62.400 C 193.457 62.400,193.625 62.185,193.528 61.504 C 193.338 60.175,192.000 60.058,192.000 61.371 M208.800 61.133 C 208.800 61.697,209.251 61.955,209.839 61.730 C 210.674 61.409,210.517 60.800,209.600 60.800 C 209.160 60.800,208.800 60.950,208.800 61.133 M184.000 62.400 C 184.000 62.933,184.267 63.200,184.800 63.200 C 185.333 63.200,185.600 62.933,185.600 62.400 C 185.600 61.867,185.333 61.600,184.800 61.600 C 184.267 61.600,184.000 61.867,184.000 62.400 M216.934 62.227 C 216.601 63.096,217.447 63.913,218.053 63.307 C 218.565 62.795,218.248 61.600,217.600 61.600 C 217.366 61.600,217.067 61.882,216.934 62.227 M176.275 63.058 C 175.592 63.741,176.025 64.800,176.987 64.800 C 177.836 64.800,177.929 64.677,177.649 63.921 C 177.300 62.977,176.720 62.613,176.275 63.058 M168.253 65.481 C 167.702 66.031,168.046 67.161,168.840 67.413 C 169.778 67.710,170.636 67.105,170.223 66.437 C 169.835 65.810,168.548 65.185,168.253 65.481 M160.100 68.665 C 158.859 69.165,160.213 71.600,161.731 71.600 C 162.225 71.600,162.400 71.244,162.400 70.243 C 162.400 68.661,161.552 68.079,160.100 68.665 M153.296 72.395 C 152.615 73.486,152.668 73.893,153.628 74.917 C 155.137 76.527,156.140 73.897,154.702 72.100 C 154.152 71.412,153.874 71.470,153.296 72.395 M154.700 73.900 C 154.945 74.635,153.728 74.510,153.444 73.771 C 153.276 73.332,153.404 73.181,153.868 73.271 C 154.234 73.342,154.609 73.625,154.700 73.900 M145.200 77.106 C 145.200 79.299,148.835 80.690,149.102 78.600 C 149.258 77.384,148.762 76.947,146.900 76.656 C 145.434 76.427,145.200 76.489,145.200 77.106 M148.400 77.976 C 148.400 78.183,148.211 78.469,147.981 78.612 C 147.394 78.975,146.296 78.491,146.598 78.003 C 146.913 77.494,148.400 77.472,148.400 77.976 M139.280 81.680 C 137.901 83.059,139.628 85.022,141.575 84.287 C 142.990 83.753,143.145 82.873,141.995 81.889 C 141.056 81.085,139.959 81.001,139.280 81.680 M141.652 82.428 C 142.291 82.770,142.356 82.971,141.977 83.428 C 141.078 84.511,139.663 83.854,140.152 82.581 C 140.418 81.887,140.605 81.868,141.652 82.428 M132.880 87.280 C 132.115 88.045,132.302 89.515,133.200 89.800 C 133.640 89.940,134.000 90.222,134.000 90.427 C 134.000 91.631,136.902 90.381,137.122 89.082 C 137.387 87.514,134.060 86.100,132.880 87.280 M135.367 87.443 C 136.146 87.742,136.192 89.065,135.450 89.807 C 134.622 90.635,132.837 88.719,133.590 87.812 C 134.149 87.139,134.425 87.081,135.367 87.443 M127.167 92.500 C 126.420 94.773,127.358 96.400,129.415 96.400 C 130.993 96.400,131.455 95.253,130.568 93.539 C 130.072 92.578,127.409 91.765,127.167 92.500 M129.848 93.505 C 130.392 94.377,129.862 96.000,129.033 96.000 C 128.225 96.000,127.687 94.928,127.909 93.762 C 128.126 92.630,129.211 92.486,129.848 93.505 M200.000 98.400 C 200.000 98.620,199.706 98.800,199.346 98.800 C 198.117 98.800,195.600 102.057,195.600 103.646 C 195.600 104.061,195.420 104.400,195.200 104.400 C 194.980 104.400,194.800 104.580,194.800 104.800 C 194.800 105.770,195.636 105.042,196.639 103.200 C 197.237 102.100,197.879 101.200,198.064 101.200 C 198.249 101.200,198.400 100.952,198.400 100.649 C 198.400 99.760,202.097 98.400,204.514 98.400 C 206.605 98.400,209.277 99.707,210.184 101.174 C 210.516 101.711,211.600 101.734,211.600 101.204 C 211.600 99.600,207.791 98.020,203.900 98.010 C 201.560 98.004,200.000 98.160,200.000 98.400 M122.629 99.829 C 121.523 100.934,121.843 102.288,123.381 103.018 C 125.118 103.842,127.368 102.226,126.355 100.883 C 125.011 99.101,123.721 98.736,122.629 99.829 M125.527 101.300 C 125.635 102.239,125.508 102.400,124.659 102.400 C 122.583 102.400,121.923 101.719,122.900 100.587 C 123.759 99.591,125.381 100.032,125.527 101.300 M211.426 102.357 C 211.087 102.907,211.511 103.752,212.408 104.312 C 213.066 104.723,213.200 104.705,213.200 104.203 C 213.200 103.872,213.020 103.600,212.800 103.600 C 212.580 103.600,212.400 103.341,212.400 103.024 C 212.400 102.310,211.737 101.856,211.426 102.357 M212.060 106.476 C 212.027 107.728,211.820 108.864,211.600 109.000 C 211.380 109.136,211.200 109.563,211.200 109.949 C 211.200 112.944,203.410 115.714,200.754 113.664 C 199.061 112.357,198.198 112.390,195.989 113.844 C 194.857 114.590,193.847 115.200,193.746 115.200 C 193.645 115.200,193.145 115.650,192.635 116.200 C 192.125 116.750,191.540 117.200,191.334 117.200 C 191.128 117.200,189.851 117.920,188.497 118.800 C 187.142 119.680,185.925 120.400,185.790 120.400 C 185.656 120.400,184.974 120.805,184.273 121.301 C 182.779 122.359,182.202 122.717,179.000 124.577 C 177.680 125.344,176.150 126.383,175.600 126.886 C 175.050 127.389,174.060 128.070,173.400 128.399 C 172.740 128.729,172.110 129.089,172.000 129.199 C 171.770 129.430,170.336 130.267,168.600 131.184 C 164.251 133.481,163.895 133.932,165.313 135.350 C 166.524 136.560,167.400 139.309,167.400 141.899 C 167.400 143.119,167.567 143.942,167.800 143.865 C 168.241 143.720,168.477 139.600,168.044 139.600 C 167.896 139.600,167.734 139.113,167.685 138.518 C 167.636 137.922,167.416 137.256,167.198 137.038 C 166.634 136.474,166.704 135.904,167.300 136.206 C 167.575 136.345,167.488 136.203,167.106 135.890 C 166.725 135.577,166.545 135.189,166.706 135.027 C 166.868 134.866,166.741 134.793,166.424 134.867 C 166.107 134.940,165.795 134.730,165.731 134.400 C 165.617 133.813,168.637 131.600,169.552 131.600 C 169.798 131.600,170.000 131.432,170.000 131.226 C 170.000 131.020,170.630 130.624,171.400 130.346 C 172.170 130.067,172.800 129.695,172.800 129.520 C 172.800 129.344,173.070 129.200,173.400 129.200 C 173.730 129.200,174.000 129.020,174.000 128.800 C 174.000 128.580,174.360 128.400,174.800 128.400 C 175.240 128.400,175.600 128.220,175.600 128.000 C 175.600 127.780,176.005 127.597,176.500 127.594 C 177.228 127.589,177.285 127.514,176.800 127.200 C 176.315 126.886,176.372 126.811,177.100 126.806 C 177.595 126.803,178.000 126.620,178.000 126.400 C 178.000 126.180,178.360 126.000,178.800 126.000 C 179.240 126.000,179.600 125.862,179.600 125.694 C 179.600 125.526,180.320 125.077,181.200 124.696 C 182.080 124.314,182.800 123.732,182.800 123.401 C 182.800 123.071,182.991 122.800,183.224 122.800 C 183.457 122.800,183.512 123.025,183.345 123.300 C 183.179 123.575,183.715 123.215,184.536 122.500 C 185.356 121.785,186.273 121.200,186.572 121.200 C 186.871 121.200,187.652 120.705,188.308 120.100 C 188.964 119.495,189.834 118.938,190.243 118.861 C 191.188 118.684,193.200 117.263,193.200 116.773 C 193.200 116.568,193.500 116.400,193.867 116.400 C 194.233 116.400,194.416 116.283,194.273 116.139 C 193.965 115.832,195.802 114.814,196.746 114.768 C 197.155 114.749,197.214 114.662,196.904 114.536 C 196.523 114.382,196.539 114.204,196.975 113.768 C 197.780 112.963,199.266 113.026,199.118 113.859 C 199.053 114.221,199.270 114.594,199.600 114.689 C 200.133 114.842,200.133 114.814,199.600 114.437 C 199.231 114.175,199.183 114.010,199.476 114.006 C 199.738 114.003,200.064 114.180,200.200 114.400 C 200.336 114.620,200.887 114.800,201.424 114.800 C 201.961 114.800,202.400 114.980,202.400 115.200 C 202.400 115.420,202.591 115.600,202.824 115.600 C 203.057 115.600,203.141 115.428,203.011 115.217 C 202.870 114.989,204.034 114.787,205.887 114.717 C 208.684 114.612,208.987 114.523,208.870 113.846 C 208.776 113.299,208.913 113.158,209.370 113.333 C 209.716 113.466,210.000 113.390,210.000 113.164 C 210.000 112.938,210.208 112.881,210.462 113.038 C 210.749 113.216,210.815 113.148,210.636 112.859 C 210.476 112.599,210.625 112.289,210.975 112.154 C 211.319 112.022,211.600 111.574,211.600 111.157 C 211.600 110.741,211.780 110.400,212.000 110.400 C 212.220 110.400,212.400 109.691,212.400 108.824 C 212.400 107.957,212.580 107.136,212.800 107.000 C 213.020 106.864,213.200 106.573,213.200 106.353 C 213.200 106.133,213.032 106.056,212.827 106.183 C 212.622 106.310,212.379 105.916,212.287 105.307 C 212.195 104.698,212.093 105.224,212.060 106.476 M195.016 105.973 C 194.871 106.208,194.943 106.400,195.176 106.400 C 195.412 106.400,195.600 107.200,195.600 108.200 C 195.600 109.190,195.780 110.000,196.000 110.000 C 196.220 110.000,196.400 110.180,196.400 110.400 C 196.400 110.620,196.130 110.800,195.800 110.800 C 195.470 110.800,195.200 110.941,195.200 111.114 C 195.200 111.552,192.963 112.830,192.684 112.551 C 192.558 112.425,192.220 112.700,191.931 113.161 C 191.643 113.622,191.091 114.000,190.704 114.000 C 190.317 114.000,190.000 114.180,190.000 114.400 C 190.000 114.620,189.730 114.800,189.400 114.800 C 189.070 114.800,188.800 114.980,188.800 115.200 C 188.800 115.420,188.485 115.600,188.100 115.601 C 187.715 115.601,186.770 116.141,186.000 116.800 C 185.230 117.459,184.375 117.999,184.100 117.999 C 183.825 118.000,183.600 118.180,183.600 118.400 C 183.600 118.620,183.410 118.800,183.179 118.800 C 182.496 118.800,179.980 120.647,180.269 120.935 C 180.414 121.081,180.216 121.200,179.828 121.200 C 179.124 121.200,176.718 122.692,176.467 123.286 C 176.393 123.458,176.061 123.600,175.728 123.600 C 175.100 123.600,172.700 125.135,172.467 125.686 C 172.393 125.858,171.978 126.000,171.543 126.000 C 171.108 126.000,170.864 126.180,171.000 126.400 C 171.136 126.620,170.922 126.804,170.524 126.809 C 170.126 126.814,169.106 127.443,168.258 128.207 C 167.410 128.971,166.528 129.479,166.296 129.336 C 166.062 129.191,165.994 129.267,166.143 129.508 C 166.289 129.745,165.885 130.313,165.243 130.769 C 164.021 131.639,162.400 131.885,162.400 131.200 C 162.400 130.980,162.010 130.800,161.533 130.800 C 161.057 130.800,160.784 130.683,160.927 130.539 C 161.264 130.203,159.337 129.200,158.354 129.200 C 157.939 129.200,157.600 129.380,157.600 129.600 C 157.600 129.820,157.918 130.000,158.307 130.000 C 158.696 130.000,159.641 130.425,160.407 130.944 C 162.792 132.559,165.833 132.289,167.028 130.354 C 167.313 129.894,171.506 127.200,171.938 127.200 C 172.115 127.200,172.683 126.750,173.200 126.200 C 173.717 125.650,174.334 125.200,174.571 125.200 C 174.808 125.200,175.882 124.575,176.957 123.811 C 178.031 123.047,179.097 122.536,179.323 122.676 C 179.575 122.832,179.636 122.672,179.481 122.266 C 179.303 121.804,179.436 121.600,179.913 121.600 C 180.291 121.600,181.632 120.790,182.893 119.800 C 184.153 118.810,185.457 118.000,185.789 118.000 C 186.121 118.000,186.618 117.640,186.893 117.200 C 187.168 116.760,187.546 116.400,187.734 116.400 C 187.923 116.400,188.554 116.064,189.138 115.652 C 189.722 115.241,190.650 114.769,191.200 114.602 C 191.750 114.436,192.974 113.782,193.920 113.150 C 194.866 112.517,195.802 112.000,196.000 112.000 C 196.934 112.000,197.056 110.608,196.329 108.271 C 195.477 105.533,195.386 105.375,195.016 105.973 M117.777 106.700 C 116.913 108.663,117.913 110.000,120.246 110.000 C 121.235 110.000,122.000 109.812,122.000 109.568 C 122.000 109.295,121.553 109.235,120.784 109.404 C 118.676 109.866,117.419 107.753,119.226 106.786 C 120.044 106.348,120.879 106.691,121.694 107.800 C 121.870 108.040,121.990 107.978,121.994 107.644 C 122.010 106.152,118.377 105.339,117.777 106.700 M114.286 113.448 C 113.662 114.071,113.998 116.371,114.774 116.786 C 115.906 117.392,117.590 117.291,117.854 116.602 C 117.981 116.274,118.245 116.104,118.442 116.226 C 118.639 116.348,118.800 116.167,118.800 115.824 C 118.800 115.481,118.663 115.200,118.495 115.200 C 118.327 115.200,118.012 114.795,117.795 114.300 C 117.398 113.395,114.936 112.797,114.286 113.448 M116.720 114.080 C 117.914 115.274,116.989 117.004,115.467 116.425 C 113.963 115.854,114.229 113.600,115.800 113.600 C 116.042 113.600,116.456 113.816,116.720 114.080 M111.300 120.998 C 110.549 121.851,110.698 123.383,111.612 124.211 C 112.781 125.269,114.551 124.614,114.730 123.057 C 114.968 120.994,112.571 119.555,111.300 120.998 M113.767 121.443 C 114.641 121.778,114.559 122.932,113.600 123.800 C 112.828 124.499,112.772 124.499,112.000 123.800 C 110.326 122.285,111.585 120.606,113.767 121.443 M108.458 130.076 C 108.311 132.558,109.893 133.615,111.700 132.243 C 113.379 130.969,112.241 128.944,109.664 128.618 C 108.622 128.486,108.546 128.579,108.458 130.076 M111.520 129.680 C 112.336 130.496,112.075 131.566,110.995 131.837 C 109.836 132.128,108.800 131.442,108.800 130.384 C 108.800 129.266,110.632 128.792,111.520 129.680 M152.238 129.662 C 152.420 129.956,152.347 130.015,152.038 129.824 C 151.764 129.654,150.911 129.945,150.077 130.493 C 145.820 133.286,145.196 133.737,145.150 134.054 C 145.044 134.785,144.948 135.044,144.255 136.467 C 143.862 137.273,143.599 138.434,143.670 139.045 C 143.784 140.019,143.919 139.862,144.756 137.778 C 146.193 134.202,151.164 130.000,153.957 130.000 C 154.201 130.000,154.400 129.820,154.400 129.600 C 154.400 129.380,153.849 129.200,153.176 129.200 C 152.353 129.200,152.046 129.351,152.238 129.662 M106.689 137.605 C 105.942 138.477,105.790 139.200,106.353 139.200 C 106.548 139.200,106.796 139.541,106.905 139.958 C 107.135 140.837,109.671 141.586,109.917 140.848 C 110.000 140.599,110.233 140.497,110.434 140.621 C 110.635 140.745,110.800 140.567,110.800 140.224 C 110.800 139.434,110.617 139.440,109.803 140.254 C 108.838 141.219,107.200 140.278,107.200 138.759 C 107.200 137.345,108.447 136.877,109.820 137.776 C 110.624 138.303,110.800 138.318,110.800 137.856 C 110.800 136.652,107.669 136.460,106.689 137.605 M143.637 143.524 C 143.613 145.646,143.745 146.758,144.000 146.600 C 144.232 146.457,144.400 146.842,144.400 147.514 C 144.400 148.668,145.435 150.000,146.331 150.000 C 146.589 150.000,146.800 150.259,146.800 150.576 C 146.800 150.893,147.008 151.281,147.262 151.438 C 147.558 151.621,147.615 151.547,147.420 151.232 C 147.192 150.863,147.322 150.869,147.940 151.255 C 148.393 151.538,148.690 151.844,148.599 151.934 C 148.508 152.025,149.065 152.527,149.835 153.050 C 151.334 154.067,153.792 154.369,153.497 153.500 C 153.403 153.225,152.851 153.000,152.270 153.000 C 151.198 153.000,147.304 150.015,145.805 148.043 C 145.404 147.517,144.761 145.537,144.375 143.643 L 143.673 140.200 143.637 143.524 M167.386 144.777 C 167.511 144.979,167.442 145.251,167.232 145.380 C 166.754 145.676,165.600 147.958,165.600 148.608 C 165.600 149.082,167.491 150.451,169.700 151.575 C 170.305 151.883,170.800 152.285,170.800 152.468 C 170.800 152.650,171.039 152.800,171.331 152.800 C 171.960 152.800,175.672 155.165,176.091 155.832 C 176.250 156.087,176.970 156.537,177.691 156.833 C 178.411 157.128,179.349 157.692,179.775 158.085 C 180.202 158.478,180.759 158.800,181.013 158.800 C 181.268 158.800,181.802 159.160,182.200 159.600 C 182.598 160.040,183.097 160.400,183.308 160.400 C 183.795 160.400,188.709 163.666,189.883 164.770 C 190.369 165.226,190.928 165.600,191.125 165.600 C 191.322 165.600,191.969 166.050,192.562 166.600 C 193.156 167.150,193.992 167.600,194.421 167.600 C 194.849 167.600,195.200 167.769,195.200 167.975 C 195.200 168.181,196.360 168.921,197.778 169.619 C 199.196 170.317,200.664 171.228,201.040 171.644 C 201.416 172.060,201.972 172.400,202.275 172.400 C 202.577 172.400,202.929 172.670,203.055 173.000 C 203.182 173.330,203.536 173.600,203.843 173.600 C 204.149 173.600,204.400 173.744,204.400 173.920 C 204.400 174.096,205.885 175.196,207.700 176.365 C 209.515 177.534,212.026 179.190,213.280 180.045 C 214.535 180.900,215.728 181.600,215.933 181.600 C 216.138 181.600,216.821 182.106,217.453 182.724 C 218.084 183.342,219.410 184.184,220.400 184.596 C 221.390 185.008,222.380 185.539,222.600 185.777 C 222.820 186.015,223.495 186.429,224.100 186.696 C 224.705 186.964,225.200 187.382,225.200 187.625 C 225.200 187.868,225.405 187.998,225.656 187.915 C 225.907 187.831,226.920 188.536,227.906 189.481 C 228.893 190.427,230.010 191.200,230.388 191.200 C 230.766 191.200,231.398 191.556,231.791 191.991 C 232.185 192.425,232.625 192.708,232.769 192.619 C 232.913 192.530,233.634 193.074,234.372 193.829 C 235.109 194.583,235.875 195.200,236.073 195.200 C 236.271 195.200,236.820 195.560,237.292 196.000 C 237.764 196.440,238.387 196.800,238.675 196.800 C 238.964 196.800,239.200 196.980,239.200 197.200 C 239.200 197.420,239.472 197.600,239.805 197.600 C 240.138 197.600,240.758 197.817,241.183 198.082 C 241.844 198.495,242.074 198.413,242.779 197.517 C 243.735 196.303,246.613 194.805,248.026 194.788 C 248.876 194.777,248.911 194.724,248.305 194.371 C 247.834 194.096,247.360 194.100,246.832 194.383 C 246.403 194.612,245.625 194.800,245.102 194.800 C 244.579 194.800,243.764 195.160,243.292 195.600 C 242.820 196.040,242.235 196.400,241.993 196.400 C 241.751 196.400,241.664 196.580,241.800 196.800 C 242.630 198.143,239.639 196.852,238.036 195.175 C 237.419 194.529,236.708 194.000,236.457 194.000 C 236.206 194.000,236.000 193.820,236.000 193.600 C 236.000 193.380,235.730 193.200,235.400 193.200 C 235.070 193.200,234.800 193.032,234.800 192.826 C 234.800 192.620,234.170 192.224,233.400 191.946 C 232.630 191.667,232.000 191.295,232.000 191.120 C 232.000 190.944,231.770 190.800,231.488 190.800 C 231.207 190.800,230.717 190.440,230.400 190.000 C 230.083 189.560,229.603 189.200,229.333 189.200 C 229.063 189.200,227.704 188.345,226.313 187.300 C 224.922 186.255,223.257 185.130,222.613 184.800 C 221.969 184.470,220.993 183.787,220.443 183.282 C 219.893 182.777,218.804 182.063,218.022 181.697 C 217.240 181.330,216.368 180.805,216.085 180.529 C 215.802 180.254,215.037 179.713,214.385 179.328 C 213.733 178.943,213.200 178.486,213.200 178.314 C 213.200 178.141,212.840 178.000,212.400 178.000 C 211.960 178.000,211.600 177.820,211.600 177.600 C 211.600 177.380,211.375 177.200,211.100 177.199 C 210.825 177.199,209.970 176.659,209.200 176.000 C 208.430 175.341,207.516 174.801,207.170 174.801 C 206.823 174.800,206.106 174.338,205.576 173.774 C 205.046 173.210,204.024 172.469,203.306 172.129 C 202.588 171.788,202.000 171.349,202.000 171.154 C 202.000 170.959,201.640 170.800,201.200 170.800 C 200.760 170.800,200.400 170.659,200.400 170.486 C 200.400 170.314,199.905 169.879,199.300 169.521 C 198.695 169.163,197.660 168.404,197.000 167.835 C 196.340 167.266,195.575 166.801,195.300 166.800 C 195.025 166.800,194.800 166.620,194.800 166.400 C 194.800 166.180,194.260 166.000,193.600 166.000 C 192.555 166.000,192.239 165.697,192.326 164.780 C 192.338 164.658,191.980 164.330,191.532 164.050 C 191.083 163.770,190.825 163.717,190.959 163.933 C 191.092 164.149,190.767 164.120,190.235 163.869 C 189.703 163.618,189.354 163.275,189.458 163.107 C 189.562 162.938,189.367 162.800,189.024 162.800 C 188.681 162.800,188.400 162.650,188.400 162.468 C 188.400 162.285,187.905 161.880,187.300 161.568 C 186.695 161.256,186.110 160.899,186.000 160.774 C 185.511 160.219,182.014 158.000,181.628 158.000 C 181.393 158.000,181.199 157.865,181.197 157.700 C 181.193 157.335,179.251 156.400,178.497 156.400 C 178.198 156.400,178.044 156.253,178.155 156.073 C 178.266 155.893,177.714 155.513,176.927 155.228 C 175.868 154.845,175.640 154.620,176.048 154.362 C 176.500 154.075,176.488 154.011,175.980 154.006 C 175.158 153.998,173.207 153.080,173.203 152.700 C 173.201 152.535,172.861 152.400,172.447 152.400 C 172.030 152.400,171.600 152.043,171.484 151.600 C 171.345 151.068,170.938 150.800,170.271 150.800 C 169.719 150.800,169.207 150.665,169.133 150.500 C 169.060 150.335,168.460 149.891,167.800 149.514 C 166.408 148.718,166.327 147.400,167.603 146.336 C 168.560 145.539,168.619 144.970,167.779 144.647 C 167.438 144.516,167.261 144.575,167.386 144.777 M105.900 145.232 C 104.930 145.797,104.978 147.853,105.974 148.386 C 107.550 149.230,110.293 148.680,109.931 147.593 C 109.808 147.224,109.592 147.265,109.111 147.746 C 108.189 148.668,106.694 148.562,106.049 147.529 C 105.076 145.972,106.785 145.158,108.820 146.210 C 109.636 146.632,110.000 146.677,110.000 146.354 C 110.000 145.100,107.365 144.379,105.900 145.232 M162.227 151.400 C 161.218 152.170,160.159 152.800,159.873 152.800 C 159.587 152.800,159.004 153.064,158.576 153.387 C 157.812 153.965,157.813 153.975,158.620 153.987 C 159.583 154.002,161.592 153.133,161.597 152.700 C 161.599 152.535,161.830 152.400,162.112 152.400 C 162.393 152.400,162.883 152.040,163.200 151.600 C 163.796 150.774,165.200 150.493,165.200 151.200 C 165.200 151.420,165.470 151.600,165.800 151.600 C 166.130 151.600,166.400 151.736,166.400 151.902 C 166.400 152.069,166.920 152.435,167.555 152.716 C 168.190 152.997,169.268 153.761,169.951 154.414 C 170.634 155.066,171.475 155.600,171.820 155.600 C 172.165 155.600,172.336 155.780,172.200 156.000 C 172.064 156.220,172.284 156.400,172.688 156.400 C 173.093 156.400,173.683 156.760,174.000 157.200 C 174.317 157.640,174.910 158.000,175.317 158.000 C 176.148 158.000,177.295 158.971,176.914 159.352 C 176.778 159.489,176.967 159.600,177.333 159.600 C 177.700 159.600,178.000 159.780,178.000 160.000 C 178.000 160.220,178.264 160.400,178.586 160.400 C 178.908 160.400,179.369 160.769,179.610 161.219 C 179.914 161.787,180.287 161.963,180.826 161.792 C 181.333 161.631,181.688 161.763,181.845 162.172 C 181.977 162.518,182.336 162.800,182.643 162.800 C 182.949 162.800,183.200 162.980,183.200 163.200 C 183.200 163.420,183.470 163.600,183.800 163.600 C 184.130 163.600,184.400 163.758,184.400 163.951 C 184.400 164.145,184.938 164.526,185.595 164.798 C 186.252 165.070,186.691 165.452,186.571 165.646 C 186.451 165.841,186.723 166.000,187.176 166.000 C 187.629 166.000,188.000 166.180,188.000 166.400 C 188.000 166.620,188.281 166.800,188.624 166.800 C 188.967 166.800,189.137 166.978,189.003 167.195 C 188.864 167.420,189.019 167.491,189.361 167.359 C 189.711 167.225,190.400 167.564,191.000 168.164 C 191.570 168.734,192.258 169.200,192.530 169.200 C 192.801 169.200,193.283 169.560,193.600 170.000 C 193.917 170.440,194.407 170.800,194.688 170.800 C 194.970 170.800,195.200 170.980,195.200 171.200 C 195.200 171.420,195.470 171.600,195.800 171.600 C 196.130 171.600,196.400 171.780,196.400 172.000 C 196.400 172.220,196.688 172.400,197.040 172.400 C 197.391 172.400,198.183 172.940,198.800 173.600 C 199.417 174.260,200.164 174.806,200.460 174.813 C 201.203 174.830,202.447 175.820,202.127 176.140 C 201.984 176.283,202.257 176.400,202.733 176.400 C 203.210 176.400,203.600 176.580,203.600 176.800 C 203.600 177.020,204.005 177.203,204.500 177.206 C 205.228 177.211,205.285 177.286,204.800 177.600 C 204.315 177.914,204.372 177.989,205.100 177.994 C 205.595 177.997,206.000 178.180,206.000 178.400 C 206.000 178.620,206.135 178.779,206.300 178.753 C 207.116 178.624,207.600 178.856,207.600 179.376 C 207.600 179.693,207.808 180.081,208.062 180.238 C 208.348 180.415,208.415 180.348,208.238 180.062 C 207.789 179.334,208.835 179.523,209.557 180.300 C 210.332 181.133,211.807 182.000,212.448 182.000 C 212.700 182.000,213.197 182.316,213.553 182.703 C 213.909 183.089,214.689 183.656,215.286 183.963 C 215.884 184.270,216.278 184.673,216.163 184.860 C 216.047 185.047,216.233 185.200,216.576 185.200 C 216.919 185.200,217.200 185.380,217.200 185.600 C 217.200 185.820,217.470 186.000,217.800 186.000 C 218.130 186.000,218.400 186.180,218.400 186.400 C 218.400 186.620,218.670 186.800,219.000 186.800 C 219.330 186.800,219.600 186.980,219.600 187.200 C 219.600 187.420,219.870 187.600,220.200 187.600 C 220.530 187.600,220.800 187.780,220.800 188.000 C 220.800 188.220,221.070 188.400,221.400 188.400 C 221.730 188.400,222.000 188.580,222.000 188.800 C 222.000 189.020,222.281 189.200,222.624 189.200 C 222.967 189.200,223.136 189.380,223.000 189.600 C 222.864 189.820,223.036 190.000,223.382 190.000 C 224.175 190.000,225.595 190.789,226.443 191.700 C 226.801 192.085,227.433 192.406,227.847 192.413 C 228.652 192.426,230.110 193.357,229.804 193.663 C 229.703 193.764,230.246 194.073,231.010 194.349 C 231.775 194.626,232.400 195.110,232.400 195.426 C 232.400 195.742,232.535 195.971,232.700 195.936 C 233.112 195.849,234.501 196.464,235.055 196.978 C 236.444 198.265,237.285 198.800,237.925 198.800 C 238.318 198.800,238.856 199.016,239.120 199.280 C 239.699 199.859,239.764 202.400,239.200 202.400 C 238.980 202.400,238.805 203.075,238.812 203.900 C 238.822 205.145,238.896 205.277,239.246 204.676 C 239.477 204.277,239.564 203.683,239.438 203.355 C 239.309 203.018,239.381 202.865,239.605 203.003 C 239.822 203.137,240.000 202.913,240.000 202.504 C 240.000 202.095,240.198 201.562,240.440 201.320 C 241.545 200.215,238.647 197.633,233.300 194.959 C 232.585 194.601,232.000 194.149,232.000 193.954 C 232.000 193.759,231.764 193.600,231.475 193.600 C 231.187 193.600,230.602 193.284,230.175 192.897 C 229.749 192.511,228.950 191.963,228.400 191.681 C 226.331 190.620,223.996 189.080,221.464 187.108 C 220.399 186.279,219.345 185.600,219.122 185.600 C 218.898 185.600,218.059 185.105,217.256 184.500 C 216.453 183.895,215.508 183.220,215.155 183.000 C 214.801 182.780,213.992 182.253,213.356 181.830 C 209.070 178.973,205.548 176.800,205.207 176.800 C 204.987 176.800,204.582 176.440,204.307 176.000 C 204.032 175.560,203.513 175.200,203.153 175.200 C 202.793 175.200,202.271 174.927,201.994 174.593 C 201.717 174.259,200.840 173.680,200.045 173.308 C 199.250 172.935,198.380 172.416,198.111 172.154 C 197.841 171.893,196.941 171.266,196.111 170.762 C 195.280 170.258,194.229 169.476,193.776 169.023 C 192.938 168.187,191.880 167.498,189.900 166.497 C 189.295 166.191,188.800 165.793,188.800 165.613 C 188.800 165.432,187.855 164.792,186.700 164.190 C 185.545 163.589,183.970 162.620,183.200 162.036 C 182.430 161.453,181.260 160.711,180.600 160.388 C 179.940 160.064,178.500 159.126,177.400 158.302 C 176.300 157.478,175.257 156.803,175.083 156.802 C 174.909 156.801,174.549 156.609,174.283 156.376 C 174.017 156.143,173.260 155.606,172.600 155.182 C 170.392 153.764,169.895 153.405,168.872 152.486 C 168.066 151.763,164.739 150.000,164.180 150.000 C 164.115 150.000,163.236 150.630,162.227 151.400 M105.878 153.480 C 104.042 153.956,105.196 156.587,107.300 156.722 L 109.200 156.844 109.200 155.022 C 109.200 153.101,108.533 152.792,105.878 153.480 M108.800 155.000 C 108.800 156.214,108.672 156.400,107.833 156.400 C 106.268 156.400,105.600 155.976,105.600 154.984 C 105.600 154.076,105.850 153.954,108.300 153.660 C 108.616 153.622,108.800 154.115,108.800 155.000 M105.700 161.857 C 104.895 162.194,105.094 164.315,105.974 164.786 C 108.055 165.900,110.000 165.147,110.000 163.229 L 110.000 161.743 108.100 161.695 C 107.055 161.669,105.975 161.742,105.700 161.857 M109.214 162.826 C 110.167 164.606,107.612 165.561,106.167 163.964 C 105.425 163.143,105.425 163.117,106.182 162.564 C 107.298 161.747,108.701 161.868,109.214 162.826 M107.500 169.476 C 107.115 169.576,106.800 169.926,106.800 170.253 C 106.800 170.580,106.647 170.753,106.460 170.637 C 106.274 170.522,106.105 170.980,106.086 171.655 C 106.067 172.330,106.156 172.777,106.285 172.648 C 106.414 172.520,106.807 172.732,107.159 173.121 C 107.847 173.880,108.016 173.900,109.700 173.424 C 110.309 173.252,110.800 172.829,110.800 172.477 C 110.800 171.981,110.693 171.947,110.320 172.320 C 109.265 173.375,107.200 172.912,107.200 171.620 C 107.200 170.046,108.216 169.484,109.688 170.245 C 110.644 170.740,110.800 170.741,110.800 170.253 C 110.800 169.340,109.338 168.995,107.500 169.476 M108.400 178.062 C 108.400 178.872,108.444 178.884,109.131 178.262 C 110.391 177.122,112.470 178.599,111.857 180.197 C 111.572 180.938,108.956 181.023,108.665 180.300 C 108.539 179.989,108.451 180.052,108.432 180.468 C 108.389 181.375,110.470 181.813,111.566 181.128 C 112.604 180.480,112.683 178.503,111.700 177.757 C 110.502 176.848,108.400 177.042,108.400 178.062 M112.200 185.545 C 109.956 186.028,110.540 189.543,112.871 189.587 C 114.045 189.610,114.852 188.416,114.721 186.854 C 114.591 185.296,114.228 185.108,112.200 185.545 M113.979 186.574 C 114.610 187.335,113.856 188.800,112.835 188.800 C 111.639 188.800,111.058 187.816,111.673 186.831 C 112.276 185.866,113.296 185.752,113.979 186.574 M114.662 193.531 C 113.231 195.113,114.231 197.549,116.081 196.986 C 117.268 196.625,118.776 194.827,118.754 193.800 C 118.745 193.360,118.647 193.223,118.536 193.496 C 118.384 193.873,118.191 193.848,117.739 193.396 C 116.925 192.582,115.463 192.647,114.662 193.531 M117.024 194.178 C 117.781 194.741,117.773 194.783,116.712 195.857 C 116.114 196.462,115.484 196.807,115.312 196.624 C 115.140 196.441,115.225 196.210,115.500 196.112 C 116.064 195.911,116.193 194.400,115.647 194.400 C 115.452 194.400,115.163 194.805,115.004 195.300 C 114.764 196.049,114.684 196.085,114.531 195.512 C 114.136 194.040,115.708 193.199,117.024 194.178 M250.400 195.172 C 250.400 195.304,251.104 195.716,251.965 196.089 C 253.012 196.543,253.831 197.303,254.439 198.384 C 255.229 199.790,256.405 200.580,256.397 199.700 C 256.391 198.984,253.066 195.600,252.369 195.600 C 251.946 195.600,251.600 195.450,251.600 195.267 C 251.600 195.083,251.330 194.933,251.000 194.933 C 250.670 194.933,250.400 195.041,250.400 195.172 M118.500 200.665 C 118.211 200.782,118.000 201.579,118.000 202.555 C 118.000 204.598,120.450 205.303,121.528 203.570 C 122.225 202.450,121.806 202.090,120.831 202.972 C 119.870 203.841,118.400 203.474,118.400 202.364 C 118.400 201.308,120.153 200.497,120.971 201.176 C 121.609 201.706,122.564 201.388,122.183 200.772 C 121.944 200.386,119.377 200.311,118.500 200.665 M256.473 202.373 C 256.460 203.259,256.578 204.063,256.735 204.160 C 257.032 204.343,256.966 201.233,256.667 200.933 C 256.572 200.839,256.485 201.487,256.473 202.373 M239.279 205.222 C 238.876 205.868,238.927 206.073,239.599 206.492 C 240.040 206.767,240.400 207.238,240.400 207.538 C 240.400 209.126,243.472 211.564,245.500 211.586 C 246.215 211.594,246.800 211.780,246.800 212.000 C 246.800 212.220,247.520 212.400,248.400 212.400 C 249.556 212.400,250.000 212.233,250.000 211.800 C 250.000 211.370,249.562 211.200,248.456 211.200 C 243.925 211.200,240.400 208.702,240.400 205.492 C 240.400 204.504,239.815 204.363,239.279 205.222 M255.599 206.500 C 255.599 207.038,252.891 209.758,251.222 210.897 L 250.200 211.595 251.513 211.597 C 252.400 211.599,252.908 211.373,253.082 210.900 C 253.223 210.515,253.847 209.769,254.469 209.242 C 255.091 208.715,255.600 208.040,255.600 207.742 C 255.600 207.444,255.780 207.200,256.000 207.200 C 256.220 207.200,256.400 206.930,256.400 206.600 C 256.400 206.270,256.220 206.000,256.000 206.000 C 255.780 206.000,255.600 206.225,255.599 206.500 M123.100 207.503 C 122.495 207.878,122.000 208.445,122.000 208.762 C 122.000 209.174,122.276 209.080,122.964 208.434 C 124.279 207.199,125.400 207.462,125.400 209.005 C 125.400 210.293,123.967 210.927,123.074 210.034 C 122.463 209.423,122.000 209.495,122.000 210.200 C 122.000 210.530,122.270 210.800,122.600 210.800 C 122.930 210.800,123.200 210.980,123.200 211.200 C 123.200 211.969,124.471 211.591,125.551 210.500 C 126.608 209.432,127.050 207.584,126.214 207.729 C 125.986 207.768,125.845 207.575,125.900 207.300 C 126.044 206.580,124.396 206.700,123.100 207.503 M128.400 213.930 C 126.823 214.455,126.378 216.294,127.567 217.370 C 128.631 218.333,130.084 218.027,130.714 216.708 C 131.551 214.958,130.196 213.332,128.400 213.930 M129.994 215.500 C 129.985 217.163,129.418 217.879,128.630 217.225 C 127.878 216.601,127.794 214.950,128.500 214.665 C 129.606 214.219,130.000 214.439,129.994 215.500 M133.023 220.489 C 132.194 221.672,132.236 222.927,133.131 223.738 C 133.889 224.424,135.415 224.671,135.028 224.045 C 134.908 223.850,135.166 223.598,135.602 223.483 C 136.039 223.369,136.519 222.944,136.669 222.538 C 136.819 222.132,137.094 221.697,137.279 221.571 C 137.465 221.445,137.277 220.950,136.862 220.471 C 135.842 219.295,133.852 219.305,133.023 220.489 M135.925 221.900 C 136.041 223.102,135.961 223.200,134.868 223.200 C 133.511 223.200,132.991 222.339,133.628 221.147 C 134.323 219.848,135.773 220.324,135.925 221.900 M139.300 225.798 C 138.101 227.160,138.674 229.200,140.256 229.200 C 141.983 229.200,142.769 228.362,142.787 226.500 C 142.801 225.049,140.388 224.563,139.300 225.798 M141.667 226.588 C 142.433 228.269,140.988 229.445,139.717 228.175 C 139.187 227.644,139.171 227.401,139.614 226.575 C 140.281 225.327,141.095 225.332,141.667 226.588 M147.200 230.370 C 147.200 230.532,146.741 230.910,146.181 231.210 C 144.605 232.054,144.952 233.757,146.735 233.928 C 149.022 234.147,150.182 231.458,148.197 230.538 C 147.649 230.283,147.200 230.208,147.200 230.370 M148.391 231.789 C 149.144 232.697,147.916 233.797,146.809 233.205 C 145.815 232.673,145.780 232.168,146.700 231.632 C 147.640 231.085,147.820 231.101,148.391 231.789 M152.880 235.280 C 152.215 235.945,152.279 237.536,153.001 238.258 C 153.712 238.970,154.801 238.842,155.195 238.000 C 155.349 237.670,155.697 236.976,155.967 236.458 C 156.270 235.879,156.294 235.619,156.030 235.782 C 155.793 235.928,155.600 235.767,155.600 235.424 C 155.600 235.081,155.456 234.800,155.280 234.800 C 155.104 234.800,155.034 235.430,155.124 236.200 C 155.262 237.385,155.166 237.600,154.493 237.600 C 153.142 237.600,152.561 236.527,153.407 235.592 C 154.169 234.750,153.693 234.467,152.880 235.280 M160.100 239.580 C 159.084 241.225,159.441 242.061,161.100 241.924 C 162.524 241.806,162.600 241.729,162.600 240.400 C 162.600 238.695,160.976 238.162,160.100 239.580 M161.958 239.966 C 162.630 240.391,162.258 241.600,161.455 241.600 C 160.820 241.600,160.274 240.528,160.622 239.964 C 160.902 239.511,161.242 239.512,161.958 239.966 M168.014 242.774 C 167.786 243.199,167.600 243.919,167.600 244.374 C 167.600 245.539,169.812 245.562,170.116 244.400 C 170.647 242.369,168.938 241.046,168.014 242.774 M169.600 243.533 C 169.600 244.552,169.173 244.876,168.532 244.343 C 168.123 244.004,168.101 243.760,168.444 243.347 C 169.079 242.582,169.600 242.666,169.600 243.533 M176.900 245.452 C 177.285 245.566,177.600 245.825,177.600 246.029 C 177.600 246.535,176.117 246.501,175.863 245.990 C 175.751 245.764,175.702 245.797,175.754 246.061 C 175.930 246.963,177.183 247.463,177.605 246.800 C 178.128 245.979,177.884 245.415,176.967 245.323 C 176.329 245.259,176.318 245.281,176.900 245.452 M217.076 246.862 C 215.843 247.551,216.213 249.200,217.600 249.200 C 218.657 249.200,218.800 249.062,218.800 248.043 C 218.800 246.759,218.107 246.285,217.076 246.862 M184.061 247.154 C 183.155 247.728,183.692 248.987,184.903 249.127 C 185.741 249.223,186.001 249.082,186.006 248.527 C 186.011 247.917,186.073 247.896,186.388 248.395 C 186.686 248.866,186.751 248.810,186.699 248.123 C 186.663 247.646,186.491 247.344,186.317 247.451 C 186.143 247.559,186.000 247.457,186.000 247.224 C 186.000 246.717,184.817 246.675,184.061 247.154 M185.600 248.000 C 185.600 248.440,185.442 248.800,185.249 248.800 C 184.724 248.800,183.967 247.766,184.270 247.463 C 184.818 246.916,185.600 247.231,185.600 248.000 M192.080 248.080 C 191.142 249.018,191.511 250.000,192.800 250.000 C 194.073 250.000,194.127 249.914,193.748 248.500 C 193.482 247.508,192.819 247.341,192.080 248.080 M208.671 248.662 C 208.522 248.811,208.403 249.218,208.406 249.567 C 208.411 250.122,208.461 250.126,208.806 249.600 C 209.155 249.069,209.244 249.068,209.583 249.597 C 209.886 250.067,210.070 250.090,210.457 249.703 C 210.726 249.434,210.869 249.143,210.773 249.056 C 210.363 248.685,208.919 248.414,208.671 248.662 M193.400 249.200 C 193.536 249.420,193.277 249.600,192.824 249.600 C 192.371 249.600,192.000 249.420,192.000 249.200 C 192.000 248.980,192.259 248.800,192.576 248.800 C 192.893 248.800,193.264 248.980,193.400 249.200 M200.406 249.067 C 200.403 249.324,200.511 249.824,200.647 250.177 C 200.954 250.979,202.003 250.257,201.994 249.251 C 201.989 248.684,201.937 248.677,201.594 249.200 C 201.244 249.733,201.156 249.733,200.806 249.200 C 200.579 248.854,200.410 248.798,200.406 249.067 " stroke="none" fill="#7f60bc" fill-rule="evenodd"></path><path id="path3" d="M148.000 77.980 C 148.000 78.296,147.693 78.413,147.199 78.284 C 146.759 78.169,146.500 78.238,146.623 78.437 C 146.746 78.637,147.096 78.800,147.400 78.800 C 148.033 78.800,148.598 78.065,148.240 77.707 C 148.108 77.575,148.000 77.698,148.000 77.980 M133.592 87.810 C 133.314 88.145,133.202 88.535,133.343 88.676 C 133.484 88.818,133.600 88.718,133.600 88.454 C 133.600 88.190,134.005 87.811,134.500 87.612 C 135.109 87.368,135.190 87.243,134.749 87.225 C 134.391 87.211,133.870 87.474,133.592 87.810 M121.600 108.392 C 121.600 109.058,119.642 109.329,118.895 108.767 C 118.246 108.279,118.244 108.292,118.856 108.963 C 119.628 109.810,122.000 109.512,122.000 108.568 C 122.000 108.256,121.910 108.000,121.800 108.000 C 121.690 108.000,121.600 108.177,121.600 108.392 M191.200 114.634 C 189.890 115.170,189.877 115.192,191.000 114.975 C 191.660 114.848,192.371 114.576,192.580 114.372 C 193.059 113.903,192.921 113.929,191.200 114.634 M108.600 163.359 C 108.600 164.412,108.717 164.635,109.100 164.317 C 109.375 164.089,109.600 163.778,109.600 163.627 C 109.600 163.476,109.375 163.045,109.100 162.669 C 108.664 162.073,108.600 162.162,108.600 163.359 M109.300 170.414 C 110.635 171.449,110.666 171.749,109.500 172.312 C 108.906 172.598,108.811 172.755,109.220 172.773 C 111.037 172.852,111.235 171.031,109.500 170.191 L 108.200 169.561 109.300 170.414 M199.201 170.686 C 199.202 171.141,202.792 173.341,203.074 173.060 C 203.204 172.929,202.853 172.648,202.294 172.436 C 201.735 172.223,201.160 171.859,201.017 171.627 C 200.661 171.052,199.200 170.295,199.201 170.686 M223.800 186.878 C 224.240 187.127,224.732 187.527,224.894 187.766 C 225.096 188.065,225.190 188.049,225.194 187.714 C 225.197 187.447,224.852 187.042,224.426 186.814 C 223.374 186.251,222.797 186.309,223.800 186.878 M225.814 187.919 C 225.496 188.238,227.640 190.400,228.275 190.400 C 228.564 190.400,228.800 190.580,228.800 190.800 C 228.800 191.321,227.721 191.319,227.398 190.797 C 227.261 190.576,226.576 190.105,225.875 189.751 C 225.171 189.397,224.809 189.329,225.066 189.601 C 225.538 190.098,226.573 190.744,228.400 191.681 C 228.950 191.963,229.749 192.511,230.175 192.897 C 231.127 193.760,231.653 193.804,231.343 192.995 C 231.169 192.541,231.296 192.459,231.855 192.663 C 232.571 192.925,232.570 192.902,231.838 192.068 C 231.419 191.591,230.766 191.200,230.388 191.200 C 230.010 191.200,228.877 190.411,227.870 189.447 C 226.864 188.482,225.939 187.795,225.814 187.919 M115.000 194.115 C 114.429 194.808,114.251 196.139,114.773 195.817 C 115.008 195.671,115.200 195.358,115.200 195.120 C 115.200 194.883,115.515 194.449,115.900 194.157 C 116.463 193.729,116.483 193.626,116.000 193.628 C 115.670 193.629,115.220 193.849,115.000 194.115 M116.301 195.537 C 115.696 195.901,115.201 196.335,115.201 196.500 C 115.199 197.082,115.872 196.788,116.800 195.800 C 117.878 194.653,117.818 194.621,116.301 195.537 M120.342 201.228 C 120.927 201.462,121.200 201.824,121.062 202.182 C 120.915 202.567,121.034 202.685,121.420 202.537 C 122.420 202.153,121.297 200.811,120.000 200.838 C 119.670 200.845,119.824 201.020,120.342 201.228 M122.439 208.953 C 122.089 209.375,122.105 209.555,122.508 209.709 C 122.822 209.830,123.059 209.606,123.093 209.156 C 123.161 208.255,123.048 208.219,122.439 208.953 M129.139 214.754 C 129.961 215.275,129.524 216.626,128.585 216.469 C 127.831 216.342,127.828 216.366,128.514 217.069 C 129.137 217.705,129.278 217.722,129.608 217.200 C 130.275 216.146,130.082 214.399,129.300 214.406 C 128.758 214.411,128.722 214.489,129.139 214.754 M133.616 221.171 C 133.165 222.012,133.444 223.200,134.092 223.200 C 134.326 223.200,134.287 222.946,134.000 222.600 C 133.345 221.810,134.223 220.660,135.273 220.935 C 135.673 221.040,135.900 220.962,135.777 220.763 C 135.381 220.122,134.041 220.375,133.616 221.171 M139.614 226.575 C 138.739 228.209,140.520 229.543,141.651 228.100 C 142.149 227.466,142.134 227.451,141.500 227.949 C 140.953 228.378,140.674 228.394,140.224 228.020 C 139.473 227.397,139.868 226.400,140.866 226.400 C 141.296 226.400,141.536 226.220,141.400 226.000 C 140.969 225.303,140.153 225.566,139.614 226.575 M146.700 231.632 C 145.780 232.168,145.815 232.673,146.809 233.205 C 147.916 233.797,149.144 232.697,148.391 231.789 C 147.820 231.101,147.640 231.085,146.700 231.632 M153.416 235.583 C 152.567 236.521,153.133 237.600,154.474 237.600 C 155.106 237.600,155.227 237.364,155.125 236.331 C 154.972 234.779,154.378 234.519,153.416 235.583 M154.600 236.800 C 154.406 237.113,154.176 237.136,153.910 236.870 C 153.690 236.650,153.640 236.258,153.800 236.000 C 153.994 235.687,154.224 235.664,154.490 235.930 C 154.710 236.150,154.760 236.542,154.600 236.800 M160.622 239.964 C 160.274 240.528,160.820 241.600,161.455 241.600 C 162.258 241.600,162.630 240.391,161.958 239.966 C 161.242 239.512,160.902 239.511,160.622 239.964 M168.444 243.347 C 168.101 243.760,168.123 244.004,168.532 244.343 C 169.173 244.876,169.600 244.552,169.600 243.533 C 169.600 242.666,169.079 242.582,168.444 243.347 M176.000 246.000 C 176.000 246.220,176.360 246.400,176.800 246.400 C 177.240 246.400,177.600 246.220,177.600 246.000 C 177.600 245.780,177.240 245.600,176.800 245.600 C 176.360 245.600,176.000 245.780,176.000 246.000 M184.270 247.463 C 183.967 247.766,184.724 248.800,185.249 248.800 C 185.442 248.800,185.600 248.440,185.600 248.000 C 185.600 247.231,184.818 246.916,184.270 247.463 M192.000 249.200 C 192.000 249.420,192.371 249.600,192.824 249.600 C 193.277 249.600,193.536 249.420,193.400 249.200 C 193.264 248.980,192.893 248.800,192.576 248.800 C 192.259 248.800,192.000 248.980,192.000 249.200 " stroke="none" fill="#9480d3" fill-rule="evenodd"></path><path id="path4" d="M146.800 78.000 C 146.800 78.220,147.070 78.400,147.400 78.400 C 147.730 78.400,148.000 78.220,148.000 78.000 C 148.000 77.780,147.730 77.600,147.400 77.600 C 147.070 77.600,146.800 77.780,146.800 78.000 M140.178 82.835 C 139.829 83.400,140.600 84.171,141.165 83.822 C 141.800 83.429,141.697 82.400,141.024 82.400 C 140.707 82.400,140.326 82.596,140.178 82.835 M133.740 88.212 C 133.455 88.955,134.257 89.659,135.200 89.494 C 135.530 89.436,135.800 89.032,135.800 88.595 C 135.800 87.567,134.108 87.253,133.740 88.212 M127.902 93.800 C 127.661 95.061,128.461 96.216,129.342 95.878 C 130.573 95.405,129.916 92.800,128.567 92.800 C 128.306 92.800,128.007 93.250,127.902 93.800 M129.200 94.600 C 129.200 94.930,129.020 95.200,128.800 95.200 C 128.580 95.200,128.400 94.930,128.400 94.600 C 128.400 94.270,128.580 94.000,128.800 94.000 C 129.020 94.000,129.200 94.270,129.200 94.600 M200.300 99.264 C 199.255 99.725,198.400 100.349,198.400 100.651 C 198.400 100.953,198.249 101.200,198.064 101.200 C 196.909 101.200,195.534 105.258,196.012 107.251 C 196.342 108.627,196.625 109.135,196.905 108.855 C 197.186 108.574,197.162 108.073,196.830 107.273 C 195.659 104.444,198.537 100.024,202.206 99.018 C 203.460 98.674,203.829 98.463,203.200 98.449 C 202.650 98.436,201.345 98.803,200.300 99.264 M206.737 99.282 C 207.693 99.745,209.090 100.705,209.843 101.414 C 210.596 102.124,211.317 102.535,211.446 102.326 C 211.575 102.117,211.617 101.914,211.540 101.873 C 210.981 101.580,209.871 100.812,208.400 99.700 C 207.454 98.985,206.302 98.409,205.840 98.420 C 205.251 98.434,205.519 98.692,206.737 99.282 M123.204 100.595 C 122.490 101.456,123.011 102.400,124.200 102.400 C 124.764 102.400,125.330 102.128,125.457 101.795 C 125.722 101.104,124.949 100.000,124.200 100.000 C 123.924 100.000,123.476 100.268,123.204 100.595 M118.900 107.065 C 117.493 107.633,119.036 109.428,120.595 109.037 C 121.790 108.737,121.910 107.794,120.826 107.214 C 119.999 106.771,119.688 106.747,118.900 107.065 M211.506 107.600 C 211.386 107.930,211.036 108.918,210.729 109.796 C 210.422 110.673,209.773 111.589,209.288 111.831 C 208.803 112.073,208.089 112.555,207.703 112.901 C 207.316 113.248,206.370 113.711,205.600 113.930 C 204.430 114.263,204.364 114.334,205.200 114.362 C 206.969 114.424,211.200 111.351,211.200 110.005 C 211.200 109.650,211.397 109.163,211.638 108.922 C 211.878 108.682,211.996 108.151,211.899 107.742 C 211.759 107.150,211.680 107.121,211.506 107.600 M194.200 112.922 C 193.540 113.405,192.860 114.018,192.689 114.284 C 192.518 114.550,191.765 114.883,191.015 115.024 C 190.266 115.164,189.343 115.621,188.964 116.040 C 188.586 116.458,188.056 116.800,187.787 116.800 C 187.518 116.800,187.074 117.070,186.800 117.400 C 186.526 117.730,186.034 118.000,185.707 118.000 C 185.380 118.000,184.727 118.357,184.256 118.794 C 182.301 120.608,180.970 121.599,180.487 121.600 C 180.206 121.600,179.871 121.870,179.745 122.200 C 179.618 122.530,179.277 122.800,178.988 122.800 C 178.698 122.800,177.940 123.238,177.304 123.774 C 176.667 124.310,175.680 124.865,175.111 125.008 C 174.542 125.151,173.667 125.702,173.168 126.234 C 172.669 126.765,172.115 127.200,171.938 127.200 C 171.441 127.200,167.432 129.838,166.834 130.559 C 166.541 130.912,166.099 131.204,165.851 131.209 C 165.603 131.214,164.950 131.567,164.400 131.993 L 163.400 132.768 164.400 132.515 C 165.330 132.279,165.358 132.313,164.800 132.996 C 164.232 133.691,164.254 133.703,165.200 133.206 C 166.671 132.433,168.178 131.200,167.651 131.200 C 167.322 131.200,167.333 130.976,167.693 130.400 C 167.968 129.960,168.509 129.600,168.896 129.600 C 169.784 129.600,169.814 130.232,168.943 130.567 C 168.581 130.705,168.391 130.924,168.520 131.053 C 168.649 131.182,169.287 130.908,169.939 130.444 C 170.590 129.980,171.340 129.600,171.605 129.600 C 171.875 129.600,171.981 129.328,171.847 128.979 C 171.699 128.594,171.773 128.460,172.043 128.626 C 172.567 128.950,174.234 128.134,175.600 126.886 C 176.150 126.383,177.680 125.344,179.000 124.577 C 182.154 122.745,182.772 122.362,184.200 121.359 C 184.860 120.895,186.132 120.143,187.027 119.687 C 187.921 119.231,188.879 118.587,189.154 118.255 C 189.430 117.923,190.157 117.541,190.770 117.407 C 191.384 117.272,192.122 116.720,192.410 116.181 C 192.699 115.641,193.159 115.200,193.433 115.200 C 193.706 115.200,194.857 114.590,195.989 113.844 C 198.198 112.390,199.061 112.357,200.754 113.664 C 201.279 114.069,202.179 114.381,202.754 114.358 C 203.685 114.321,203.641 114.266,202.356 113.858 C 201.563 113.606,200.663 113.201,200.356 112.958 C 199.304 112.121,198.035 112.082,196.616 112.842 C 195.217 113.593,194.749 113.411,195.680 112.480 C 196.473 111.687,195.486 111.982,194.200 112.922 M114.846 114.475 C 114.357 115.258,114.395 115.429,115.201 116.081 C 116.645 117.250,118.045 115.405,116.720 114.080 C 116.014 113.374,115.461 113.491,114.846 114.475 M111.695 121.665 C 110.991 122.369,111.079 122.967,112.014 123.813 C 113.095 124.791,114.924 123.323,114.154 122.094 C 113.611 121.229,112.351 121.009,111.695 121.665 M113.466 122.973 C 113.333 123.318,113.034 123.600,112.800 123.600 C 112.112 123.600,111.834 122.350,112.438 121.976 C 113.148 121.538,113.781 122.152,113.466 122.973 M109.700 129.507 C 108.661 129.679,108.491 130.845,109.395 131.596 C 110.249 132.305,112.000 131.774,112.000 130.806 C 112.000 129.886,110.960 129.298,109.700 129.507 M154.400 129.600 C 154.400 129.820,154.193 130.000,153.940 130.000 C 152.203 130.000,145.600 134.511,145.600 135.697 C 145.600 135.879,146.153 135.398,146.829 134.628 C 149.887 131.145,156.887 129.268,159.604 131.203 C 160.268 131.676,161.021 131.993,161.277 131.908 C 161.858 131.714,159.142 130.000,158.253 130.000 C 157.894 130.000,157.600 129.820,157.600 129.600 C 157.600 129.380,156.880 129.200,156.000 129.200 C 155.120 129.200,154.400 129.380,154.400 129.600 M111.200 130.600 C 111.200 130.933,110.844 131.200,110.400 131.200 C 109.956 131.200,109.600 130.933,109.600 130.600 C 109.600 130.267,109.956 130.000,110.400 130.000 C 110.844 130.000,111.200 130.267,111.200 130.600 M164.400 134.803 C 164.400 135.238,166.074 136.859,166.295 136.638 C 166.379 136.554,165.988 136.024,165.424 135.461 C 164.861 134.897,164.400 134.601,164.400 134.803 M144.479 138.391 C 144.020 139.496,143.731 140.400,143.836 140.400 C 144.104 140.400,145.655 136.722,145.467 136.534 C 145.383 136.450,144.939 137.285,144.479 138.391 M107.900 137.476 C 107.436 137.597,107.200 138.050,107.200 138.822 C 107.200 140.436,108.885 140.898,110.136 139.628 L 111.000 138.751 110.056 137.976 C 109.536 137.549,108.996 137.221,108.856 137.246 C 108.715 137.272,108.285 137.375,107.900 137.476 M166.412 138.200 C 166.412 138.640,166.587 139.270,166.800 139.600 C 167.121 140.097,167.188 140.062,167.188 139.400 C 167.188 138.960,167.013 138.330,166.800 138.000 C 166.479 137.503,166.412 137.538,166.412 138.200 M109.428 138.445 C 109.818 139.076,108.735 139.644,108.118 139.132 C 107.838 138.899,107.707 138.550,107.828 138.355 C 108.135 137.858,109.099 137.912,109.428 138.445 M167.309 142.000 C 167.309 142.990,167.387 143.395,167.482 142.900 C 167.578 142.405,167.578 141.595,167.482 141.100 C 167.387 140.605,167.309 141.010,167.309 142.000 M144.244 143.000 C 144.573 144.471,144.802 144.790,144.794 143.767 C 144.791 143.345,144.605 142.730,144.382 142.400 C 144.085 141.962,144.048 142.124,144.244 143.000 M166.723 145.500 C 165.974 146.372,165.458 147.735,166.005 147.397 C 166.222 147.263,166.400 146.953,166.400 146.708 C 166.400 146.463,166.698 145.934,167.062 145.531 C 167.426 145.129,167.634 144.800,167.524 144.800 C 167.414 144.800,167.053 145.115,166.723 145.500 M106.229 146.129 C 105.198 146.883,106.160 148.400,107.669 148.400 C 109.066 148.400,109.654 146.921,108.573 146.130 C 107.659 145.463,107.141 145.462,106.229 146.129 M108.224 147.562 C 107.880 148.117,106.927 148.130,106.589 147.582 C 106.447 147.353,106.556 146.894,106.831 146.562 C 107.425 145.847,108.712 146.771,108.224 147.562 M146.178 148.351 C 146.531 148.936,148.829 151.078,150.593 152.466 C 151.448 153.139,151.750 153.203,152.129 152.793 C 152.496 152.395,152.481 152.350,152.061 152.589 C 151.704 152.792,150.825 152.229,149.461 150.925 C 146.962 148.535,145.687 147.535,146.178 148.351 M165.244 149.747 C 164.869 150.199,165.070 150.421,166.290 150.911 C 167.121 151.244,168.304 151.986,168.921 152.559 C 169.537 153.131,170.138 153.600,170.257 153.600 C 170.376 153.600,170.952 153.968,171.537 154.417 C 173.374 155.829,180.004 160.000,180.411 160.000 C 180.625 160.000,180.800 160.180,180.800 160.400 C 180.800 160.620,181.029 160.800,181.309 160.800 C 181.589 160.800,182.444 161.315,183.209 161.945 C 183.974 162.575,185.534 163.578,186.677 164.175 C 187.819 164.771,188.809 165.381,188.877 165.530 C 189.065 165.942,192.327 168.000,192.791 168.000 C 193.016 168.000,193.200 168.160,193.200 168.356 C 193.200 168.758,200.131 173.600,200.706 173.600 C 200.909 173.600,201.402 173.960,201.800 174.400 C 202.198 174.840,202.764 175.200,203.057 175.200 C 203.351 175.200,203.958 175.515,204.406 175.900 C 204.855 176.285,205.824 176.960,206.560 177.400 C 207.748 178.110,208.710 178.737,213.356 181.830 C 213.992 182.254,214.801 182.780,215.155 183.000 C 215.508 183.220,216.453 183.895,217.256 184.500 C 218.059 185.105,218.844 185.600,219.001 185.600 C 219.158 185.600,220.607 186.455,222.221 187.500 C 228.255 191.407,228.800 191.680,228.800 190.800 C 228.800 190.580,228.575 190.398,228.300 190.396 C 228.025 190.393,227.077 189.718,226.193 188.896 C 224.165 187.008,222.682 185.965,220.180 184.667 C 219.091 184.101,217.776 183.180,217.258 182.619 C 216.740 182.059,216.134 181.600,215.912 181.600 C 215.689 181.600,214.673 180.993,213.654 180.250 C 212.634 179.508,211.080 178.516,210.200 178.045 C 209.320 177.575,207.610 176.474,206.400 175.597 C 205.190 174.721,203.300 173.484,202.200 172.847 C 201.100 172.210,199.750 171.292,199.200 170.806 C 198.650 170.320,197.537 169.582,196.727 169.167 C 195.917 168.751,195.141 168.229,195.004 168.006 C 194.866 167.783,194.486 167.600,194.159 167.600 C 193.832 167.600,193.080 167.150,192.487 166.600 C 191.893 166.050,191.181 165.600,190.904 165.600 C 190.627 165.600,190.400 165.420,190.400 165.200 C 190.400 164.980,190.203 164.800,189.961 164.800 C 189.720 164.800,188.755 164.124,187.817 163.299 C 186.879 162.473,185.322 161.386,184.356 160.884 C 182.115 159.718,181.379 159.282,179.335 157.914 C 178.419 157.301,177.484 156.800,177.257 156.800 C 177.031 156.800,176.610 156.480,176.323 156.088 C 175.662 155.187,172.038 152.800,171.331 152.800 C 171.039 152.800,170.800 152.620,170.800 152.400 C 170.800 152.180,170.530 152.000,170.200 152.000 C 169.870 152.000,169.600 151.841,169.600 151.647 C 169.600 151.452,169.285 151.195,168.900 151.076 C 168.515 150.956,167.639 150.483,166.953 150.024 C 165.901 149.319,165.635 149.276,165.244 149.747 M161.185 151.139 C 160.423 151.545,159.260 152.174,158.600 152.536 C 157.940 152.899,157.175 153.196,156.900 153.198 C 156.625 153.199,156.400 153.380,156.400 153.600 C 156.400 154.189,157.683 154.063,158.576 153.387 C 159.004 153.064,159.634 152.793,159.976 152.784 C 160.655 152.766,163.625 150.400,162.969 150.400 C 162.749 150.400,161.946 150.732,161.185 151.139 M106.800 153.958 C 105.368 154.351,105.214 155.888,106.573 156.229 C 108.128 156.619,108.873 156.171,108.727 154.933 C 108.585 153.732,108.247 153.561,106.800 153.958 M106.202 162.549 C 105.420 163.121,105.419 163.137,106.183 163.981 C 107.309 165.226,108.600 164.915,108.600 163.400 C 108.600 161.999,107.492 161.606,106.202 162.549 M107.680 170.480 C 106.372 171.788,107.452 173.124,109.224 172.390 C 110.633 171.807,110.691 171.449,109.511 170.623 C 108.442 169.874,108.297 169.863,107.680 170.480 M109.265 178.343 C 108.221 179.021,108.875 180.600,110.200 180.600 C 111.267 180.600,111.400 180.467,111.400 179.400 C 111.400 178.133,110.372 177.624,109.265 178.343 M111.816 186.783 C 111.221 187.440,111.181 187.695,111.594 188.192 C 112.719 189.548,114.666 188.345,113.735 186.869 C 113.139 185.924,112.614 185.900,111.816 186.783 M231.200 192.780 C 231.200 193.359,232.867 194.793,234.297 195.445 C 235.750 196.107,239.860 198.980,240.526 199.799 C 240.706 200.020,240.738 199.795,240.599 199.300 C 240.444 198.750,240.521 198.400,240.797 198.400 C 241.044 198.400,241.136 198.220,241.000 198.000 C 240.864 197.780,240.403 197.600,239.976 197.600 C 239.549 197.600,239.200 197.420,239.200 197.200 C 239.200 196.980,238.964 196.800,238.675 196.800 C 238.387 196.800,237.764 196.440,237.292 196.000 C 236.820 195.560,236.265 195.200,236.059 195.200 C 235.853 195.200,235.130 194.682,234.452 194.048 C 233.311 192.983,231.200 192.160,231.200 192.780 M116.000 194.800 C 116.000 195.730,116.505 195.837,117.161 195.047 C 117.517 194.618,117.475 194.438,116.977 194.247 C 116.048 193.890,116.000 193.918,116.000 194.800 M245.691 195.561 C 244.752 195.934,243.582 196.660,243.091 197.173 L 242.200 198.107 243.488 197.187 C 249.070 193.201,257.364 199.246,255.441 205.900 C 255.235 206.615,254.931 207.200,254.767 207.200 C 254.602 207.200,253.786 207.919,252.952 208.799 C 252.119 209.678,251.114 210.500,250.719 210.626 C 250.323 210.751,250.000 211.042,250.000 211.273 C 250.000 211.503,250.495 211.369,251.100 210.975 C 252.739 209.907,255.586 207.072,255.593 206.500 C 255.597 206.225,255.780 206.000,256.000 206.000 C 256.231 206.000,256.400 204.733,256.400 203.000 C 256.400 200.867,256.255 200.000,255.900 199.999 C 255.625 199.999,254.860 199.205,254.200 198.235 C 253.509 197.220,252.448 196.255,251.700 195.961 C 250.985 195.680,250.400 195.304,250.400 195.125 C 250.400 194.576,247.496 194.845,245.691 195.561 M118.815 201.782 C 118.177 202.551,118.619 203.200,119.781 203.200 C 120.712 203.200,121.404 202.254,120.978 201.564 C 120.631 201.004,119.354 201.133,118.815 201.782 M240.312 201.600 C 238.914 204.662,242.063 210.546,245.330 210.980 C 247.668 211.290,248.316 210.994,246.127 210.616 C 243.206 210.112,240.916 207.041,240.715 203.360 C 240.644 202.062,240.462 201.270,240.312 201.600 M123.112 208.700 C 122.838 209.757,123.181 210.400,124.019 210.400 C 124.840 210.400,125.784 209.021,125.395 208.392 C 124.981 207.722,123.307 207.948,123.112 208.700 M128.129 215.440 C 127.877 216.098,128.711 216.902,129.281 216.550 C 129.456 216.442,129.600 216.003,129.600 215.576 C 129.600 214.640,128.476 214.537,128.129 215.440 M134.000 221.400 C 133.603 221.879,133.603 222.121,134.000 222.600 C 134.694 223.436,135.499 223.348,135.799 222.404 C 136.272 220.912,134.996 220.200,134.000 221.400 M139.867 226.971 C 139.532 227.842,140.653 228.620,141.376 228.020 C 142.104 227.416,141.743 226.400,140.800 226.400 C 140.407 226.400,139.987 226.657,139.867 226.971 M153.800 236.000 C 153.640 236.258,153.690 236.650,153.910 236.870 C 154.176 237.136,154.406 237.113,154.600 236.800 C 154.760 236.542,154.710 236.150,154.490 235.930 C 154.224 235.664,153.994 235.687,153.800 236.000 " stroke="none" fill="#946fe2" fill-rule="evenodd"></path></g></svg>